<svg width="1920" height="1080" viewBox="0 0 1920 1080" fill="none" xmlns="http://www.w3.org/2000/svg">
<rect width="1920" height="1080" fill="#B0548A"/>
<rect x="95" y="60" width="1730" height="960" fill="#FEF0F7"/>
<path d="M1074.94 197.7L1064.56 240H1050.1L1044.28 214.08L1038.34 240H1023.88L1013.62 197.7H1026.34L1031.26 226.62L1037.92 197.7H1050.82L1057.3 226.38L1062.22 197.7H1074.94ZM1112.09 222.78C1112.09 223.7 1112.03 224.62 1111.91 225.54H1089.65C1089.77 227.38 1090.27 228.76 1091.15 229.68C1092.07 230.56 1093.23 231 1094.63 231C1096.59 231 1097.99 230.12 1098.83 228.36H1111.37C1110.85 230.68 1109.83 232.76 1108.31 234.6C1106.83 236.4 1104.95 237.82 1102.67 238.86C1100.39 239.9 1097.87 240.42 1095.11 240.42C1091.79 240.42 1088.83 239.72 1086.23 238.32C1083.67 236.92 1081.65 234.92 1080.17 232.32C1078.73 229.72 1078.01 226.66 1078.01 223.14C1078.01 219.62 1078.73 216.58 1080.17 214.02C1081.61 211.42 1083.61 209.42 1086.17 208.02C1088.77 206.62 1091.75 205.92 1095.11 205.92C1098.43 205.92 1101.37 206.6 1103.93 207.96C1106.49 209.32 1108.49 211.28 1109.93 213.84C1111.37 216.36 1112.09 219.34 1112.09 222.78ZM1100.09 219.84C1100.09 218.4 1099.61 217.28 1098.65 216.48C1097.69 215.64 1096.49 215.22 1095.05 215.22C1093.61 215.22 1092.43 215.62 1091.51 216.42C1090.59 217.18 1089.99 218.32 1089.71 219.84H1100.09ZM1128.66 195.6V240H1116.9V195.6H1128.66ZM1133.44 223.14C1133.44 219.66 1134.16 216.62 1135.6 214.02C1137.04 211.42 1139.04 209.42 1141.6 208.02C1144.2 206.62 1147.16 205.92 1150.48 205.92C1154.76 205.92 1158.36 207.1 1161.28 209.46C1164.2 211.78 1166.08 215.04 1166.92 219.24H1154.44C1153.72 217.04 1152.32 215.94 1150.24 215.94C1148.76 215.94 1147.58 216.56 1146.7 217.8C1145.86 219 1145.44 220.78 1145.44 223.14C1145.44 225.5 1145.86 227.3 1146.7 228.54C1147.58 229.78 1148.76 230.4 1150.24 230.4C1152.36 230.4 1153.76 229.3 1154.44 227.1H1166.92C1166.08 231.26 1164.2 234.52 1161.28 236.88C1158.36 239.24 1154.76 240.42 1150.48 240.42C1147.16 240.42 1144.2 239.72 1141.6 238.32C1139.04 236.92 1137.04 234.92 1135.6 232.32C1134.16 229.72 1133.44 226.66 1133.44 223.14ZM1187.47 240.42C1184.11 240.42 1181.09 239.72 1178.41 238.32C1175.77 236.92 1173.69 234.92 1172.17 232.32C1170.65 229.72 1169.89 226.66 1169.89 223.14C1169.89 219.66 1170.65 216.62 1172.17 214.02C1173.73 211.42 1175.83 209.42 1178.47 208.02C1181.15 206.62 1184.17 205.92 1187.53 205.92C1190.89 205.92 1193.89 206.62 1196.53 208.02C1199.21 209.42 1201.31 211.42 1202.83 214.02C1204.39 216.62 1205.17 219.66 1205.17 223.14C1205.17 226.62 1204.39 229.68 1202.83 232.32C1201.31 234.92 1199.21 236.92 1196.53 238.32C1193.85 239.72 1190.83 240.42 1187.47 240.42ZM1187.47 230.22C1189.11 230.22 1190.47 229.62 1191.55 228.42C1192.67 227.18 1193.23 225.42 1193.23 223.14C1193.23 220.86 1192.67 219.12 1191.55 217.92C1190.47 216.72 1189.13 216.12 1187.53 216.12C1185.93 216.12 1184.59 216.72 1183.51 217.92C1182.43 219.12 1181.89 220.86 1181.89 223.14C1181.89 225.46 1182.41 227.22 1183.45 228.42C1184.49 229.62 1185.83 230.22 1187.47 230.22ZM1253.93 206.04C1258.17 206.04 1261.49 207.32 1263.89 209.88C1266.33 212.44 1267.55 215.94 1267.55 220.38V240H1255.79V221.94C1255.79 220.14 1255.29 218.74 1254.29 217.74C1253.29 216.74 1251.93 216.24 1250.21 216.24C1248.49 216.24 1247.13 216.74 1246.13 217.74C1245.13 218.74 1244.63 220.14 1244.63 221.94V240H1232.87V221.94C1232.87 220.14 1232.37 218.74 1231.37 217.74C1230.41 216.74 1229.07 216.24 1227.35 216.24C1225.59 216.24 1224.21 216.74 1223.21 217.74C1222.21 218.74 1221.71 220.14 1221.71 221.94V240H1209.95V206.34H1221.71V210.78C1222.75 209.34 1224.09 208.2 1225.73 207.36C1227.41 206.48 1229.33 206.04 1231.49 206.04C1233.97 206.04 1236.17 206.58 1238.09 207.66C1240.05 208.74 1241.59 210.26 1242.71 212.22C1243.91 210.38 1245.49 208.9 1247.45 207.78C1249.41 206.62 1251.57 206.04 1253.93 206.04ZM1306.15 222.78C1306.15 223.7 1306.09 224.62 1305.97 225.54H1283.71C1283.83 227.38 1284.33 228.76 1285.21 229.68C1286.13 230.56 1287.29 231 1288.69 231C1290.65 231 1292.05 230.12 1292.89 228.36H1305.43C1304.91 230.68 1303.89 232.76 1302.37 234.6C1300.89 236.4 1299.01 237.82 1296.73 238.86C1294.45 239.9 1291.93 240.42 1289.17 240.42C1285.85 240.42 1282.89 239.72 1280.29 238.32C1277.73 236.92 1275.71 234.92 1274.23 232.32C1272.79 229.72 1272.07 226.66 1272.07 223.14C1272.07 219.62 1272.79 216.58 1274.23 214.02C1275.67 211.42 1277.67 209.42 1280.23 208.02C1282.83 206.62 1285.81 205.92 1289.17 205.92C1292.49 205.92 1295.43 206.6 1297.99 207.96C1300.55 209.32 1302.55 211.28 1303.99 213.84C1305.43 216.36 1306.15 219.34 1306.15 222.78ZM1294.15 219.84C1294.15 218.4 1293.67 217.28 1292.71 216.48C1291.75 215.64 1290.55 215.22 1289.11 215.22C1287.67 215.22 1286.49 215.62 1285.57 216.42C1284.65 217.18 1284.05 218.32 1283.77 219.84H1294.15ZM1342.31 229.98V240H1337.21C1328.61 240 1324.31 235.74 1324.31 227.22V216.12H1320.17V206.34H1324.31V198.18H1336.13V206.34H1342.25V216.12H1336.13V227.4C1336.13 228.32 1336.33 228.98 1336.73 229.38C1337.17 229.78 1337.89 229.98 1338.89 229.98H1342.31ZM1363.36 240.42C1360 240.42 1356.98 239.72 1354.3 238.32C1351.66 236.92 1349.58 234.92 1348.06 232.32C1346.54 229.72 1345.78 226.66 1345.78 223.14C1345.78 219.66 1346.54 216.62 1348.06 214.02C1349.62 211.42 1351.72 209.42 1354.36 208.02C1357.04 206.62 1360.06 205.92 1363.42 205.92C1366.78 205.92 1369.78 206.62 1372.42 208.02C1375.1 209.42 1377.2 211.42 1378.72 214.02C1380.28 216.62 1381.06 219.66 1381.06 223.14C1381.06 226.62 1380.28 229.68 1378.72 232.32C1377.2 234.92 1375.1 236.92 1372.42 238.32C1369.74 239.72 1366.72 240.42 1363.36 240.42ZM1363.36 230.22C1365 230.22 1366.36 229.62 1367.44 228.42C1368.56 227.18 1369.12 225.42 1369.12 223.14C1369.12 220.86 1368.56 219.12 1367.44 217.92C1366.36 216.72 1365.02 216.12 1363.42 216.12C1361.82 216.12 1360.48 216.72 1359.4 217.92C1358.32 219.12 1357.78 220.86 1357.78 223.14C1357.78 225.46 1358.3 227.22 1359.34 228.42C1360.38 229.62 1361.72 230.22 1363.36 230.22ZM1395.89 218.76C1395.89 214.6 1396.75 210.9 1398.47 207.66C1400.23 204.38 1402.71 201.84 1405.91 200.04C1409.11 198.2 1412.79 197.28 1416.95 197.28C1422.23 197.28 1426.67 198.7 1430.27 201.54C1433.87 204.34 1436.19 208.16 1437.23 213H1424.57C1423.81 211.4 1422.75 210.18 1421.39 209.34C1420.07 208.5 1418.53 208.08 1416.77 208.08C1414.05 208.08 1411.87 209.06 1410.23 211.02C1408.63 212.94 1407.83 215.52 1407.83 218.76C1407.83 222.04 1408.63 224.66 1410.23 226.62C1411.87 228.54 1414.05 229.5 1416.77 229.5C1418.53 229.5 1420.07 229.08 1421.39 228.24C1422.75 227.4 1423.81 226.18 1424.57 224.58H1437.23C1436.19 229.42 1433.87 233.26 1430.27 236.1C1426.67 238.9 1422.23 240.3 1416.95 240.3C1412.79 240.3 1409.11 239.4 1405.91 237.6C1402.71 235.76 1400.23 233.22 1398.47 229.98C1396.75 226.7 1395.89 222.96 1395.89 218.76ZM1440.88 223.14C1440.88 219.66 1441.5 216.62 1442.74 214.02C1444.02 211.42 1445.74 209.42 1447.9 208.02C1450.1 206.62 1452.54 205.92 1455.22 205.92C1457.54 205.92 1459.54 206.38 1461.22 207.3C1462.9 208.22 1464.2 209.46 1465.12 211.02V206.34H1476.88V240H1465.12V235.32C1464.2 236.88 1462.88 238.12 1461.16 239.04C1459.48 239.96 1457.5 240.42 1455.22 240.42C1452.54 240.42 1450.1 239.72 1447.9 238.32C1445.74 236.92 1444.02 234.92 1442.74 232.32C1441.5 229.68 1440.88 226.62 1440.88 223.14ZM1465.12 223.14C1465.12 220.98 1464.52 219.28 1463.32 218.04C1462.16 216.8 1460.72 216.18 1459 216.18C1457.24 216.18 1455.78 216.8 1454.62 218.04C1453.46 219.24 1452.88 220.94 1452.88 223.14C1452.88 225.3 1453.46 227.02 1454.62 228.3C1455.78 229.54 1457.24 230.16 1459 230.16C1460.72 230.16 1462.16 229.54 1463.32 228.3C1464.52 227.06 1465.12 225.34 1465.12 223.14ZM1495.34 195.6V240H1483.58V195.6H1495.34ZM1546.02 206.04C1550.26 206.04 1553.58 207.32 1555.98 209.88C1558.42 212.44 1559.64 215.94 1559.64 220.38V240H1547.88V221.94C1547.88 220.14 1547.38 218.74 1546.38 217.74C1545.38 216.74 1544.02 216.24 1542.3 216.24C1540.58 216.24 1539.22 216.74 1538.22 217.74C1537.22 218.74 1536.72 220.14 1536.72 221.94V240H1524.96V221.94C1524.96 220.14 1524.46 218.74 1523.46 217.74C1522.5 216.74 1521.16 216.24 1519.44 216.24C1517.68 216.24 1516.3 216.74 1515.3 217.74C1514.3 218.74 1513.8 220.14 1513.8 221.94V240H1502.04V206.34H1513.8V210.78C1514.84 209.34 1516.18 208.2 1517.82 207.36C1519.5 206.48 1521.42 206.04 1523.58 206.04C1526.06 206.04 1528.26 206.58 1530.18 207.66C1532.14 208.74 1533.68 210.26 1534.8 212.22C1536 210.38 1537.58 208.9 1539.54 207.78C1541.5 206.62 1543.66 206.04 1546.02 206.04ZM1581.74 240.42C1578.38 240.42 1575.36 239.72 1572.68 238.32C1570.04 236.92 1567.96 234.92 1566.44 232.32C1564.92 229.72 1564.16 226.66 1564.16 223.14C1564.16 219.66 1564.92 216.62 1566.44 214.02C1568 211.42 1570.1 209.42 1572.74 208.02C1575.42 206.62 1578.44 205.92 1581.8 205.92C1585.16 205.92 1588.16 206.62 1590.8 208.02C1593.48 209.42 1595.58 211.42 1597.1 214.02C1598.66 216.62 1599.44 219.66 1599.44 223.14C1599.44 226.62 1598.66 229.68 1597.1 232.32C1595.58 234.92 1593.48 236.92 1590.8 238.32C1588.12 239.72 1585.1 240.42 1581.74 240.42ZM1581.74 230.22C1583.38 230.22 1584.74 229.62 1585.82 228.42C1586.94 227.18 1587.5 225.42 1587.5 223.14C1587.5 220.86 1586.94 219.12 1585.82 217.92C1584.74 216.72 1583.4 216.12 1581.8 216.12C1580.2 216.12 1578.86 216.72 1577.78 217.92C1576.7 219.12 1576.16 220.86 1576.16 223.14C1576.16 225.46 1576.68 227.22 1577.72 228.42C1578.76 229.62 1580.1 230.22 1581.74 230.22ZM1615.99 212.28C1617.31 210.36 1618.91 208.84 1620.79 207.72C1622.67 206.6 1624.69 206.04 1626.85 206.04V218.58H1623.55C1620.99 218.58 1619.09 219.08 1617.85 220.08C1616.61 221.08 1615.99 222.82 1615.99 225.3V240H1604.23V206.34H1615.99V212.28ZM1629.14 223.14C1629.14 219.66 1629.76 216.62 1631 214.02C1632.28 211.42 1634 209.42 1636.16 208.02C1638.36 206.62 1640.8 205.92 1643.48 205.92C1645.8 205.92 1647.8 206.38 1649.48 207.3C1651.16 208.22 1652.46 209.46 1653.38 211.02V206.34H1665.14V240H1653.38V235.32C1652.46 236.88 1651.14 238.12 1649.42 239.04C1647.74 239.96 1645.76 240.42 1643.48 240.42C1640.8 240.42 1638.36 239.72 1636.16 238.32C1634 236.92 1632.28 234.92 1631 232.32C1629.76 229.68 1629.14 226.62 1629.14 223.14ZM1653.38 223.14C1653.38 220.98 1652.78 219.28 1651.58 218.04C1650.42 216.8 1648.98 216.18 1647.26 216.18C1645.5 216.18 1644.04 216.8 1642.88 218.04C1641.72 219.24 1641.14 220.94 1641.14 223.14C1641.14 225.3 1641.72 227.02 1642.88 228.3C1644.04 229.54 1645.5 230.16 1647.26 230.16C1648.98 230.16 1650.42 229.54 1651.58 228.3C1652.78 227.06 1653.38 225.34 1653.38 223.14Z" fill="black"/>
<rect x="1566" y="98" width="176" height="60" rx="12" stroke="#D05D97" stroke-width="4"/>
<path d="M1620.77 135.161C1619.59 135.161 1618.53 134.969 1617.59 134.586C1616.66 134.203 1615.91 133.635 1615.34 132.884C1614.79 132.133 1614.5 131.228 1614.47 130.17H1618.65C1618.71 130.768 1618.92 131.228 1619.27 131.55C1619.63 131.857 1620.09 132.01 1620.65 132.01C1621.24 132.01 1621.7 131.88 1622.03 131.619C1622.37 131.343 1622.54 130.967 1622.54 130.492C1622.54 130.093 1622.4 129.764 1622.13 129.503C1621.86 129.242 1621.53 129.028 1621.14 128.859C1620.75 128.69 1620.2 128.499 1619.48 128.284C1618.44 127.962 1617.59 127.64 1616.93 127.318C1616.27 126.996 1615.7 126.521 1615.23 125.892C1614.75 125.263 1614.51 124.443 1614.51 123.431C1614.51 121.928 1615.06 120.755 1616.15 119.912C1617.23 119.053 1618.65 118.624 1620.4 118.624C1622.18 118.624 1623.61 119.053 1624.7 119.912C1625.79 120.755 1626.37 121.936 1626.45 123.454H1622.19C1622.16 122.933 1621.97 122.526 1621.62 122.235C1621.27 121.928 1620.81 121.775 1620.26 121.775C1619.79 121.775 1619.4 121.905 1619.11 122.166C1618.82 122.411 1618.68 122.772 1618.68 123.247C1618.68 123.768 1618.92 124.175 1619.41 124.466C1619.9 124.757 1620.67 125.072 1621.71 125.409C1622.75 125.762 1623.6 126.099 1624.24 126.421C1624.9 126.743 1625.47 127.211 1625.94 127.824C1626.42 128.437 1626.66 129.227 1626.66 130.193C1626.66 131.113 1626.42 131.949 1625.94 132.7C1625.48 133.451 1624.81 134.049 1623.92 134.494C1623.03 134.939 1621.98 135.161 1620.77 135.161ZM1631.05 120.832C1630.36 120.832 1629.8 120.633 1629.35 120.234C1628.92 119.82 1628.71 119.314 1628.71 118.716C1628.71 118.103 1628.92 117.597 1629.35 117.198C1629.8 116.784 1630.36 116.577 1631.05 116.577C1631.73 116.577 1632.28 116.784 1632.71 117.198C1633.16 117.597 1633.38 118.103 1633.38 118.716C1633.38 119.314 1633.16 119.82 1632.71 120.234C1632.28 120.633 1631.73 120.832 1631.05 120.832ZM1633.01 122.166V135H1629.08V122.166H1633.01ZM1640.74 121.982C1641.64 121.982 1642.43 122.166 1643.1 122.534C1643.79 122.902 1644.32 123.385 1644.69 123.983V122.166H1648.62V134.977C1648.62 136.158 1648.39 137.223 1647.91 138.174C1647.45 139.14 1646.74 139.907 1645.77 140.474C1644.82 141.041 1643.63 141.325 1642.21 141.325C1640.31 141.325 1638.77 140.873 1637.58 139.968C1636.4 139.079 1635.73 137.867 1635.56 136.334H1639.45C1639.57 136.825 1639.86 137.208 1640.32 137.484C1640.78 137.775 1641.35 137.921 1642.02 137.921C1642.84 137.921 1643.48 137.683 1643.96 137.208C1644.45 136.748 1644.69 136.004 1644.69 134.977V133.16C1644.31 133.758 1643.78 134.249 1643.1 134.632C1642.43 135 1641.64 135.184 1640.74 135.184C1639.68 135.184 1638.72 134.916 1637.86 134.379C1637 133.827 1636.32 133.053 1635.81 132.056C1635.32 131.044 1635.08 129.879 1635.08 128.56C1635.08 127.241 1635.32 126.084 1635.81 125.087C1636.32 124.09 1637 123.324 1637.86 122.787C1638.72 122.25 1639.68 121.982 1640.74 121.982ZM1644.69 128.583C1644.69 127.602 1644.42 126.827 1643.86 126.26C1643.33 125.693 1642.67 125.409 1641.89 125.409C1641.1 125.409 1640.44 125.693 1639.88 126.26C1639.35 126.812 1639.08 127.579 1639.08 128.56C1639.08 129.541 1639.35 130.323 1639.88 130.906C1640.44 131.473 1641.1 131.757 1641.89 131.757C1642.67 131.757 1643.33 131.473 1643.86 130.906C1644.42 130.339 1644.69 129.564 1644.69 128.583ZM1659.29 122.028C1660.79 122.028 1661.99 122.519 1662.88 123.5C1663.78 124.466 1664.23 125.8 1664.23 127.502V135H1660.32V128.031C1660.32 127.172 1660.1 126.505 1659.66 126.03C1659.21 125.555 1658.62 125.317 1657.86 125.317C1657.11 125.317 1656.51 125.555 1656.07 126.03C1655.63 126.505 1655.4 127.172 1655.4 128.031V135H1651.47V122.166H1655.4V123.868C1655.8 123.301 1656.34 122.856 1657.01 122.534C1657.69 122.197 1658.45 122.028 1659.29 122.028ZM1675.71 118.854V128.514C1675.71 129.48 1675.94 130.224 1676.42 130.745C1676.89 131.266 1677.59 131.527 1678.51 131.527C1679.43 131.527 1680.14 131.266 1680.63 130.745C1681.12 130.224 1681.36 129.48 1681.36 128.514V118.854H1685.3V128.491C1685.3 129.932 1684.99 131.151 1684.38 132.148C1683.76 133.145 1682.94 133.896 1681.89 134.402C1680.87 134.908 1679.72 135.161 1678.44 135.161C1677.17 135.161 1676.03 134.916 1675.02 134.425C1674.02 133.919 1673.23 133.168 1672.65 132.171C1672.06 131.159 1671.77 129.932 1671.77 128.491V118.854H1675.71ZM1691.99 123.983C1692.38 123.385 1692.9 122.902 1693.58 122.534C1694.25 122.166 1695.04 121.982 1695.95 121.982C1697.01 121.982 1697.96 122.25 1698.82 122.787C1699.68 123.324 1700.36 124.09 1700.85 125.087C1701.35 126.084 1701.61 127.241 1701.61 128.56C1701.61 129.879 1701.35 131.044 1700.85 132.056C1700.36 133.053 1699.68 133.827 1698.82 134.379C1697.96 134.916 1697.01 135.184 1695.95 135.184C1695.06 135.184 1694.27 135 1693.58 134.632C1692.9 134.264 1692.38 133.789 1691.99 133.206V141.118H1688.06V122.166H1691.99V123.983ZM1697.6 128.56C1697.6 127.579 1697.33 126.812 1696.78 126.26C1696.24 125.693 1695.57 125.409 1694.77 125.409C1693.99 125.409 1693.33 125.693 1692.77 126.26C1692.24 126.827 1691.97 127.602 1691.97 128.583C1691.97 129.564 1692.24 130.339 1692.77 130.906C1693.33 131.473 1693.99 131.757 1694.77 131.757C1695.56 131.757 1696.22 131.473 1696.78 130.906C1697.33 130.323 1697.6 129.541 1697.6 128.56Z" fill="#D05D97"/>
<path d="M1219.2 118.946C1220.89 118.946 1222.37 119.276 1223.64 119.935C1224.93 120.594 1225.92 121.537 1226.61 122.764C1227.31 123.975 1227.66 125.386 1227.66 126.996C1227.66 128.606 1227.31 130.017 1226.61 131.228C1225.92 132.424 1224.93 133.352 1223.64 134.011C1222.37 134.67 1220.89 135 1219.2 135H1213.59V118.946H1219.2ZM1219.08 132.263C1220.77 132.263 1222.07 131.803 1222.99 130.883C1223.91 129.963 1224.37 128.667 1224.37 126.996C1224.37 125.325 1223.91 124.021 1222.99 123.086C1222.07 122.135 1220.77 121.66 1219.08 121.66H1216.81V132.263H1219.08ZM1235.73 135.207C1234.5 135.207 1233.4 134.939 1232.42 134.402C1231.44 133.85 1230.66 133.076 1230.1 132.079C1229.54 131.082 1229.27 129.932 1229.27 128.629C1229.27 127.326 1229.55 126.176 1230.12 125.179C1230.7 124.182 1231.49 123.416 1232.49 122.879C1233.48 122.327 1234.6 122.051 1235.82 122.051C1237.05 122.051 1238.16 122.327 1239.16 122.879C1240.15 123.416 1240.94 124.182 1241.5 125.179C1242.09 126.176 1242.38 127.326 1242.38 128.629C1242.38 129.932 1242.08 131.082 1241.48 132.079C1240.9 133.076 1240.1 133.85 1239.09 134.402C1238.09 134.939 1236.97 135.207 1235.73 135.207ZM1235.73 132.401C1236.31 132.401 1236.86 132.263 1237.36 131.987C1237.89 131.696 1238.3 131.266 1238.61 130.699C1238.91 130.132 1239.07 129.442 1239.07 128.629C1239.07 127.418 1238.74 126.49 1238.1 125.846C1237.47 125.187 1236.7 124.857 1235.78 124.857C1234.86 124.857 1234.08 125.187 1233.45 125.846C1232.84 126.49 1232.53 127.418 1232.53 128.629C1232.53 129.84 1232.83 130.776 1233.43 131.435C1234.04 132.079 1234.81 132.401 1235.73 132.401ZM1251.8 122.074C1253.32 122.074 1254.55 122.557 1255.48 123.523C1256.42 124.474 1256.88 125.808 1256.88 127.525V135H1253.66V127.962C1253.66 126.95 1253.41 126.176 1252.91 125.639C1252.4 125.087 1251.71 124.811 1250.84 124.811C1249.95 124.811 1249.24 125.087 1248.72 125.639C1248.21 126.176 1247.96 126.95 1247.96 127.962V135H1244.74V122.258H1247.96V123.845C1248.39 123.293 1248.93 122.864 1249.59 122.557C1250.27 122.235 1251 122.074 1251.8 122.074ZM1260.59 118.946H1263.97L1261.49 124.742H1259.28L1260.59 118.946ZM1270.03 124.903V131.067C1270.03 131.496 1270.13 131.811 1270.33 132.01C1270.54 132.194 1270.9 132.286 1271.39 132.286H1272.88V135H1270.86C1268.14 135 1266.79 133.681 1266.79 131.044V124.903H1265.27V122.258H1266.79V119.107H1270.03V122.258H1272.88V124.903H1270.03ZM1287.85 122.074C1288.82 122.074 1289.68 122.289 1290.43 122.718C1291.18 123.132 1291.76 123.753 1292.18 124.581C1292.61 125.394 1292.82 126.375 1292.82 127.525V135H1289.6V127.962C1289.6 126.95 1289.35 126.176 1288.84 125.639C1288.34 125.087 1287.65 124.811 1286.77 124.811C1285.88 124.811 1285.18 125.087 1284.66 125.639C1284.15 126.176 1283.9 126.95 1283.9 127.962V135H1280.68V117.98H1283.9V123.845C1284.31 123.293 1284.86 122.864 1285.55 122.557C1286.24 122.235 1287.01 122.074 1287.85 122.074ZM1295.06 128.583C1295.06 127.295 1295.31 126.153 1295.81 125.156C1296.34 124.159 1297.03 123.393 1297.91 122.856C1298.8 122.319 1299.79 122.051 1300.87 122.051C1301.83 122.051 1302.65 122.243 1303.36 122.626C1304.08 123.009 1304.65 123.492 1305.08 124.075V122.258H1308.33V135H1305.08V133.137C1304.67 133.735 1304.09 134.233 1303.36 134.632C1302.64 135.015 1301.8 135.207 1300.85 135.207C1299.78 135.207 1298.8 134.931 1297.91 134.379C1297.03 133.827 1296.34 133.053 1295.81 132.056C1295.31 131.044 1295.06 129.886 1295.06 128.583ZM1305.08 128.629C1305.08 127.847 1304.93 127.18 1304.62 126.628C1304.32 126.061 1303.9 125.631 1303.38 125.34C1302.86 125.033 1302.3 124.88 1301.7 124.88C1301.1 124.88 1300.55 125.026 1300.05 125.317C1299.54 125.608 1299.13 126.038 1298.8 126.605C1298.5 127.157 1298.34 127.816 1298.34 128.583C1298.34 129.35 1298.5 130.024 1298.8 130.607C1299.13 131.174 1299.54 131.611 1300.05 131.918C1300.57 132.225 1301.12 132.378 1301.7 132.378C1302.3 132.378 1302.86 132.232 1303.38 131.941C1303.9 131.634 1304.32 131.205 1304.62 130.653C1304.93 130.086 1305.08 129.411 1305.08 128.629ZM1316.78 132.033L1320 122.258H1323.43L1318.72 135H1314.81L1310.11 122.258H1313.56L1316.78 132.033ZM1337.09 128.353C1337.09 128.813 1337.05 129.227 1336.99 129.595H1327.68C1327.75 130.515 1328.08 131.236 1328.64 131.757C1329.21 132.278 1329.91 132.539 1330.74 132.539C1331.93 132.539 1332.78 132.025 1333.29 130.998H1336.76C1336.4 132.225 1335.69 133.237 1334.65 134.034C1333.6 134.816 1332.32 135.207 1330.81 135.207C1329.58 135.207 1328.48 134.939 1327.49 134.402C1326.53 133.85 1325.77 133.076 1325.22 132.079C1324.68 131.082 1324.41 129.932 1324.41 128.629C1324.41 127.31 1324.68 126.153 1325.22 125.156C1325.75 124.159 1326.51 123.393 1327.47 122.856C1328.44 122.319 1329.55 122.051 1330.81 122.051C1332.02 122.051 1333.1 122.312 1334.05 122.833C1335.02 123.354 1335.76 124.098 1336.28 125.064C1336.82 126.015 1337.09 127.111 1337.09 128.353ZM1333.75 127.433C1333.73 126.605 1333.44 125.946 1332.85 125.455C1332.27 124.949 1331.56 124.696 1330.71 124.696C1329.92 124.696 1329.24 124.941 1328.69 125.432C1328.15 125.907 1327.82 126.574 1327.7 127.433H1333.75ZM1344.09 128.583C1344.09 127.295 1344.34 126.153 1344.85 125.156C1345.37 124.159 1346.07 123.393 1346.94 122.856C1347.83 122.319 1348.82 122.051 1349.91 122.051C1350.86 122.051 1351.69 122.243 1352.39 122.626C1353.11 123.009 1353.69 123.492 1354.12 124.075V122.258H1357.36V135H1354.12V133.137C1353.7 133.735 1353.13 134.233 1352.39 134.632C1351.67 135.015 1350.83 135.207 1349.88 135.207C1348.81 135.207 1347.83 134.931 1346.94 134.379C1346.07 133.827 1345.37 133.053 1344.85 132.056C1344.34 131.044 1344.09 129.886 1344.09 128.583ZM1354.12 128.629C1354.12 127.847 1353.96 127.18 1353.66 126.628C1353.35 126.061 1352.94 125.631 1352.41 125.34C1351.89 125.033 1351.33 124.88 1350.74 124.88C1350.14 124.88 1349.59 125.026 1349.08 125.317C1348.57 125.608 1348.16 126.038 1347.84 126.605C1347.53 127.157 1347.38 127.816 1347.38 128.583C1347.38 129.35 1347.53 130.024 1347.84 130.607C1348.16 131.174 1348.57 131.611 1349.08 131.918C1349.6 132.225 1350.15 132.378 1350.74 132.378C1351.33 132.378 1351.89 132.232 1352.41 131.941C1352.94 131.634 1353.35 131.205 1353.66 130.653C1353.96 130.086 1354.12 129.411 1354.12 128.629ZM1367.56 122.074C1369.08 122.074 1370.31 122.557 1371.24 123.523C1372.18 124.474 1372.65 125.808 1372.65 127.525V135H1369.43V127.962C1369.43 126.95 1369.17 126.176 1368.67 125.639C1368.16 125.087 1367.47 124.811 1366.6 124.811C1365.71 124.811 1365 125.087 1364.48 125.639C1363.98 126.176 1363.72 126.95 1363.72 127.962V135H1360.5V122.258H1363.72V123.845C1364.15 123.293 1364.7 122.864 1365.36 122.557C1366.03 122.235 1366.77 122.074 1367.56 122.074ZM1380.36 128.583C1380.36 127.295 1380.62 126.153 1381.12 125.156C1381.64 124.159 1382.34 123.393 1383.21 122.856C1384.1 122.319 1385.09 122.051 1386.18 122.051C1387.13 122.051 1387.96 122.243 1388.67 122.626C1389.39 123.009 1389.96 123.492 1390.39 124.075V122.258H1393.63V135H1390.39V133.137C1389.98 133.735 1389.4 134.233 1388.67 134.632C1387.94 135.015 1387.11 135.207 1386.16 135.207C1385.09 135.207 1384.1 134.931 1383.21 134.379C1382.34 133.827 1381.64 133.053 1381.12 132.056C1380.62 131.044 1380.36 129.886 1380.36 128.583ZM1390.39 128.629C1390.39 127.847 1390.24 127.18 1389.93 126.628C1389.62 126.061 1389.21 125.631 1388.69 125.34C1388.17 125.033 1387.61 124.88 1387.01 124.88C1386.41 124.88 1385.86 125.026 1385.35 125.317C1384.85 125.608 1384.43 126.038 1384.11 126.605C1383.8 127.157 1383.65 127.816 1383.65 128.583C1383.65 129.35 1383.8 130.024 1384.11 130.607C1384.43 131.174 1384.85 131.611 1385.35 131.918C1385.87 132.225 1386.43 132.378 1387.01 132.378C1387.61 132.378 1388.17 132.232 1388.69 131.941C1389.21 131.634 1389.62 131.205 1389.93 130.653C1390.24 130.086 1390.39 129.411 1390.39 128.629ZM1395.95 128.629C1395.95 127.31 1396.22 126.16 1396.76 125.179C1397.29 124.182 1398.04 123.416 1398.99 122.879C1399.94 122.327 1401.03 122.051 1402.25 122.051C1403.83 122.051 1405.14 122.45 1406.16 123.247C1407.21 124.029 1407.9 125.133 1408.26 126.559H1404.78C1404.6 126.007 1404.28 125.578 1403.84 125.271C1403.41 124.949 1402.87 124.788 1402.23 124.788C1401.31 124.788 1400.58 125.125 1400.04 125.8C1399.51 126.459 1399.24 127.402 1399.24 128.629C1399.24 129.84 1399.51 130.783 1400.04 131.458C1400.58 132.117 1401.31 132.447 1402.23 132.447C1403.53 132.447 1404.38 131.864 1404.78 130.699H1408.26C1407.9 132.079 1407.21 133.175 1406.16 133.988C1405.12 134.801 1403.82 135.207 1402.25 135.207C1401.03 135.207 1399.94 134.939 1398.99 134.402C1398.04 133.85 1397.29 133.083 1396.76 132.102C1396.22 131.105 1395.95 129.948 1395.95 128.629ZM1409.79 128.629C1409.79 127.31 1410.05 126.16 1410.59 125.179C1411.13 124.182 1411.87 123.416 1412.82 122.879C1413.77 122.327 1414.86 122.051 1416.09 122.051C1417.67 122.051 1418.97 122.45 1420 123.247C1421.04 124.029 1421.74 125.133 1422.09 126.559H1418.62C1418.43 126.007 1418.12 125.578 1417.68 125.271C1417.25 124.949 1416.71 124.788 1416.07 124.788C1415.15 124.788 1414.42 125.125 1413.88 125.8C1413.34 126.459 1413.08 127.402 1413.08 128.629C1413.08 129.84 1413.34 130.783 1413.88 131.458C1414.42 132.117 1415.15 132.447 1416.07 132.447C1417.37 132.447 1418.22 131.864 1418.62 130.699H1422.09C1421.74 132.079 1421.04 133.175 1420 133.988C1418.96 134.801 1417.65 135.207 1416.09 135.207C1414.86 135.207 1413.77 134.939 1412.82 134.402C1411.87 133.85 1411.13 133.083 1410.59 132.102C1410.05 131.105 1409.79 129.948 1409.79 128.629ZM1430.11 135.207C1428.88 135.207 1427.78 134.939 1426.8 134.402C1425.81 133.85 1425.04 133.076 1424.47 132.079C1423.92 131.082 1423.65 129.932 1423.65 128.629C1423.65 127.326 1423.93 126.176 1424.5 125.179C1425.08 124.182 1425.87 123.416 1426.87 122.879C1427.86 122.327 1428.97 122.051 1430.2 122.051C1431.43 122.051 1432.54 122.327 1433.54 122.879C1434.53 123.416 1435.31 124.182 1435.88 125.179C1436.46 126.176 1436.76 127.326 1436.76 128.629C1436.76 129.932 1436.46 131.082 1435.86 132.079C1435.28 133.076 1434.48 133.85 1433.47 134.402C1432.47 134.939 1431.35 135.207 1430.11 135.207ZM1430.11 132.401C1430.69 132.401 1431.24 132.263 1431.74 131.987C1432.26 131.696 1432.68 131.266 1432.98 130.699C1433.29 130.132 1433.44 129.442 1433.44 128.629C1433.44 127.418 1433.12 126.49 1432.48 125.846C1431.85 125.187 1431.07 124.857 1430.15 124.857C1429.23 124.857 1428.46 125.187 1427.83 125.846C1427.22 126.49 1426.91 127.418 1426.91 128.629C1426.91 129.84 1427.21 130.776 1427.81 131.435C1428.42 132.079 1429.19 132.401 1430.11 132.401ZM1451.15 122.258V135H1447.9V133.39C1447.49 133.942 1446.94 134.379 1446.27 134.701C1445.61 135.008 1444.89 135.161 1444.11 135.161C1443.11 135.161 1442.23 134.954 1441.46 134.54C1440.7 134.111 1440.09 133.49 1439.65 132.677C1439.22 131.849 1439 130.868 1439 129.733V122.258H1442.22V129.273C1442.22 130.285 1442.48 131.067 1442.98 131.619C1443.49 132.156 1444.18 132.424 1445.05 132.424C1445.94 132.424 1446.64 132.156 1447.14 131.619C1447.65 131.067 1447.9 130.285 1447.9 129.273V122.258H1451.15ZM1461.38 122.074C1462.9 122.074 1464.13 122.557 1465.06 123.523C1466 124.474 1466.47 125.808 1466.47 127.525V135H1463.25V127.962C1463.25 126.95 1462.99 126.176 1462.49 125.639C1461.98 125.087 1461.29 124.811 1460.42 124.811C1459.53 124.811 1458.82 125.087 1458.3 125.639C1457.8 126.176 1457.54 126.95 1457.54 127.962V135H1454.32V122.258H1457.54V123.845C1457.97 123.293 1458.52 122.864 1459.18 122.557C1459.85 122.235 1460.59 122.074 1461.38 122.074ZM1473.28 124.903V131.067C1473.28 131.496 1473.38 131.811 1473.58 132.01C1473.79 132.194 1474.14 132.286 1474.64 132.286H1476.13V135H1474.11C1471.39 135 1470.04 133.681 1470.04 131.044V124.903H1468.52V122.258H1470.04V119.107H1473.28V122.258H1476.13V124.903H1473.28ZM1482.93 118.394C1484.53 118.394 1485.81 118.831 1486.77 119.705C1487.75 120.564 1488.24 121.752 1488.24 123.27C1488.24 124.773 1487.76 125.923 1486.8 126.72C1485.83 127.502 1484.55 127.893 1482.95 127.893L1482.86 129.664H1480.03L1479.92 125.754H1480.95C1482.29 125.754 1483.31 125.578 1484.04 125.225C1484.76 124.872 1485.12 124.228 1485.12 123.293C1485.12 122.618 1484.92 122.082 1484.52 121.683C1484.14 121.284 1483.61 121.085 1482.93 121.085C1482.23 121.085 1481.67 121.277 1481.28 121.66C1480.89 122.043 1480.7 122.572 1480.7 123.247H1477.66C1477.65 122.312 1477.85 121.476 1478.26 120.74C1478.68 120.004 1479.28 119.429 1480.08 119.015C1480.89 118.601 1481.84 118.394 1482.93 118.394ZM1481.44 135.161C1480.85 135.161 1480.37 134.985 1479.99 134.632C1479.62 134.264 1479.44 133.812 1479.44 133.275C1479.44 132.738 1479.62 132.294 1479.99 131.941C1480.37 131.573 1480.85 131.389 1481.44 131.389C1482 131.389 1482.47 131.573 1482.84 131.941C1483.21 132.294 1483.39 132.738 1483.39 133.275C1483.39 133.812 1483.21 134.264 1482.84 134.632C1482.47 134.985 1482 135.161 1481.44 135.161Z" fill="#444444"/>
<path d="M1019.75 288.175C1018.53 288.175 1017.43 287.967 1016.45 287.55C1015.48 287.133 1014.72 286.533 1014.15 285.75C1013.58 284.967 1013.29 284.042 1013.28 282.975H1017.03C1017.08 283.692 1017.33 284.258 1017.78 284.675C1018.24 285.092 1018.88 285.3 1019.68 285.3C1020.49 285.3 1021.13 285.108 1021.6 284.725C1022.07 284.325 1022.3 283.808 1022.3 283.175C1022.3 282.658 1022.14 282.233 1021.83 281.9C1021.51 281.567 1021.11 281.308 1020.63 281.125C1020.16 280.925 1019.51 280.708 1018.68 280.475C1017.54 280.142 1016.62 279.817 1015.9 279.5C1015.2 279.167 1014.59 278.675 1014.08 278.025C1013.58 277.358 1013.33 276.475 1013.33 275.375C1013.33 274.342 1013.58 273.442 1014.1 272.675C1014.62 271.908 1015.34 271.325 1016.28 270.925C1017.21 270.508 1018.28 270.3 1019.48 270.3C1021.28 270.3 1022.73 270.742 1023.85 271.625C1024.98 272.492 1025.61 273.708 1025.73 275.275H1021.88C1021.84 274.675 1021.58 274.183 1021.1 273.8C1020.63 273.4 1020.01 273.2 1019.23 273.2C1018.54 273.2 1017.99 273.375 1017.58 273.725C1017.18 274.075 1016.98 274.583 1016.98 275.25C1016.98 275.717 1017.13 276.108 1017.43 276.425C1017.74 276.725 1018.13 276.975 1018.58 277.175C1019.04 277.358 1019.69 277.575 1020.53 277.825C1021.66 278.158 1022.58 278.492 1023.3 278.825C1024.02 279.158 1024.63 279.658 1025.15 280.325C1025.67 280.992 1025.93 281.867 1025.93 282.95C1025.93 283.883 1025.68 284.75 1025.2 285.55C1024.72 286.35 1024.01 286.992 1023.08 287.475C1022.14 287.942 1021.03 288.175 1019.75 288.175ZM1030.73 272.5C1030.12 272.5 1029.6 272.308 1029.18 271.925C1028.78 271.525 1028.58 271.033 1028.58 270.45C1028.58 269.867 1028.78 269.383 1029.18 269C1029.6 268.6 1030.12 268.4 1030.73 268.4C1031.35 268.4 1031.86 268.6 1032.26 269C1032.68 269.383 1032.88 269.867 1032.88 270.45C1032.88 271.033 1032.68 271.525 1032.26 271.925C1031.86 272.308 1031.35 272.5 1030.73 272.5ZM1032.46 274.15V288H1028.96V274.15H1032.46ZM1041.34 273.925C1042.38 273.925 1043.28 274.133 1044.07 274.55C1044.85 274.95 1045.47 275.475 1045.92 276.125V274.15H1049.44V288.1C1049.44 289.383 1049.18 290.525 1048.67 291.525C1048.15 292.542 1047.38 293.342 1046.34 293.925C1045.31 294.525 1044.06 294.825 1042.59 294.825C1040.63 294.825 1039.01 294.367 1037.74 293.45C1036.49 292.533 1035.78 291.283 1035.62 289.7H1039.09C1039.28 290.333 1039.67 290.833 1040.27 291.2C1040.88 291.583 1041.63 291.775 1042.49 291.775C1043.51 291.775 1044.33 291.467 1044.97 290.85C1045.6 290.25 1045.92 289.333 1045.92 288.1V285.95C1045.47 286.6 1044.84 287.142 1044.04 287.575C1043.26 288.008 1042.36 288.225 1041.34 288.225C1040.18 288.225 1039.11 287.925 1038.14 287.325C1037.18 286.725 1036.41 285.883 1035.84 284.8C1035.29 283.7 1035.02 282.442 1035.02 281.025C1035.02 279.625 1035.29 278.383 1035.84 277.3C1036.41 276.217 1037.17 275.383 1038.12 274.8C1039.08 274.217 1040.16 273.925 1041.34 273.925ZM1045.92 281.075C1045.92 280.225 1045.75 279.5 1045.42 278.9C1045.08 278.283 1044.63 277.817 1044.07 277.5C1043.5 277.167 1042.89 277 1042.24 277C1041.59 277 1040.99 277.158 1040.44 277.475C1039.89 277.792 1039.44 278.258 1039.09 278.875C1038.76 279.475 1038.59 280.192 1038.59 281.025C1038.59 281.858 1038.76 282.592 1039.09 283.225C1039.44 283.842 1039.89 284.317 1040.44 284.65C1041.01 284.983 1041.61 285.15 1042.24 285.15C1042.89 285.15 1043.5 284.992 1044.07 284.675C1044.63 284.342 1045.08 283.875 1045.42 283.275C1045.75 282.658 1045.92 281.925 1045.92 281.075ZM1060.54 273.95C1062.19 273.95 1063.52 274.475 1064.54 275.525C1065.55 276.558 1066.06 278.008 1066.06 279.875V288H1062.56V280.35C1062.56 279.25 1062.29 278.408 1061.74 277.825C1061.19 277.225 1060.44 276.925 1059.49 276.925C1058.52 276.925 1057.75 277.225 1057.19 277.825C1056.64 278.408 1056.36 279.25 1056.36 280.35V288H1052.86V274.15H1056.36V275.875C1056.83 275.275 1057.42 274.808 1058.14 274.475C1058.87 274.125 1059.67 273.95 1060.54 273.95ZM1077.12 272.5C1076.5 272.5 1075.99 272.308 1075.57 271.925C1075.17 271.525 1074.97 271.033 1074.97 270.45C1074.97 269.867 1075.17 269.383 1075.57 269C1075.99 268.6 1076.5 268.4 1077.12 268.4C1077.74 268.4 1078.25 268.6 1078.65 269C1079.06 269.383 1079.27 269.867 1079.27 270.45C1079.27 271.033 1079.06 271.525 1078.65 271.925C1078.25 272.308 1077.74 272.5 1077.12 272.5ZM1078.85 274.15V288H1075.35V274.15H1078.85ZM1089.98 273.95C1091.63 273.95 1092.96 274.475 1093.98 275.525C1095 276.558 1095.5 278.008 1095.5 279.875V288H1092V280.35C1092 279.25 1091.73 278.408 1091.18 277.825C1090.63 277.225 1089.88 276.925 1088.93 276.925C1087.96 276.925 1087.2 277.225 1086.63 277.825C1086.08 278.408 1085.8 279.25 1085.8 280.35V288H1082.3V274.15H1085.8V275.875C1086.27 275.275 1086.86 274.808 1087.58 274.475C1088.31 274.125 1089.11 273.95 1089.98 273.95ZM1118.04 274.15L1109.46 294.55H1105.74L1108.74 287.65L1103.19 274.15H1107.11L1110.69 283.825L1114.31 274.15H1118.04ZM1126.08 288.225C1124.74 288.225 1123.54 287.933 1122.48 287.35C1121.41 286.75 1120.57 285.908 1119.95 284.825C1119.35 283.742 1119.05 282.492 1119.05 281.075C1119.05 279.658 1119.36 278.408 1119.98 277.325C1120.61 276.242 1121.47 275.408 1122.55 274.825C1123.63 274.225 1124.84 273.925 1126.18 273.925C1127.51 273.925 1128.72 274.225 1129.8 274.825C1130.88 275.408 1131.73 276.242 1132.35 277.325C1132.98 278.408 1133.3 279.658 1133.3 281.075C1133.3 282.492 1132.98 283.742 1132.33 284.825C1131.69 285.908 1130.83 286.75 1129.73 287.35C1128.64 287.933 1127.43 288.225 1126.08 288.225ZM1126.08 285.175C1126.71 285.175 1127.3 285.025 1127.85 284.725C1128.42 284.408 1128.87 283.942 1129.2 283.325C1129.53 282.708 1129.7 281.958 1129.7 281.075C1129.7 279.758 1129.35 278.75 1128.65 278.05C1127.97 277.333 1127.13 276.975 1126.13 276.975C1125.13 276.975 1124.28 277.333 1123.6 278.05C1122.93 278.75 1122.6 279.758 1122.6 281.075C1122.6 282.392 1122.93 283.408 1123.58 284.125C1124.24 284.825 1125.08 285.175 1126.08 285.175ZM1148.94 274.15V288H1145.42V286.25C1144.97 286.85 1144.38 287.325 1143.64 287.675C1142.93 288.008 1142.14 288.175 1141.29 288.175C1140.21 288.175 1139.25 287.95 1138.42 287.5C1137.59 287.033 1136.93 286.358 1136.44 285.475C1135.98 284.575 1135.74 283.508 1135.74 282.275V274.15H1139.24V281.775C1139.24 282.875 1139.52 283.725 1140.07 284.325C1140.62 284.908 1141.37 285.2 1142.32 285.2C1143.29 285.2 1144.04 284.908 1144.59 284.325C1145.14 283.725 1145.42 282.875 1145.42 281.775V274.15H1148.94ZM1155.9 276.3C1156.35 275.567 1156.93 274.992 1157.65 274.575C1158.38 274.158 1159.21 273.95 1160.15 273.95V277.625H1159.22C1158.12 277.625 1157.29 277.883 1156.72 278.4C1156.17 278.917 1155.9 279.817 1155.9 281.1V288H1152.4V274.15H1155.9V276.3ZM1167.56 281.025C1167.56 279.625 1167.84 278.383 1168.39 277.3C1168.95 276.217 1169.71 275.383 1170.66 274.8C1171.63 274.217 1172.7 273.925 1173.89 273.925C1174.92 273.925 1175.82 274.133 1176.59 274.55C1177.37 274.967 1177.99 275.492 1178.46 276.125V274.15H1181.99V288H1178.46V285.975C1178.01 286.625 1177.39 287.167 1176.59 287.6C1175.8 288.017 1174.89 288.225 1173.86 288.225C1172.69 288.225 1171.63 287.925 1170.66 287.325C1169.71 286.725 1168.95 285.883 1168.39 284.8C1167.84 283.7 1167.56 282.442 1167.56 281.025ZM1178.46 281.075C1178.46 280.225 1178.29 279.5 1177.96 278.9C1177.63 278.283 1177.18 277.817 1176.61 277.5C1176.04 277.167 1175.44 277 1174.79 277C1174.14 277 1173.54 277.158 1172.99 277.475C1172.44 277.792 1171.99 278.258 1171.64 278.875C1171.3 279.475 1171.14 280.192 1171.14 281.025C1171.14 281.858 1171.3 282.592 1171.64 283.225C1171.99 283.842 1172.44 284.317 1172.99 284.65C1173.55 284.983 1174.15 285.15 1174.79 285.15C1175.44 285.15 1176.04 284.992 1176.61 284.675C1177.18 284.342 1177.63 283.875 1177.96 283.275C1178.29 282.658 1178.46 281.925 1178.46 281.075ZM1184.5 281.075C1184.5 279.642 1184.8 278.392 1185.38 277.325C1185.96 276.242 1186.77 275.408 1187.8 274.825C1188.84 274.225 1190.02 273.925 1191.35 273.925C1193.07 273.925 1194.49 274.358 1195.6 275.225C1196.74 276.075 1197.5 277.275 1197.88 278.825H1194.1C1193.9 278.225 1193.56 277.758 1193.08 277.425C1192.61 277.075 1192.03 276.9 1191.33 276.9C1190.33 276.9 1189.54 277.267 1188.95 278C1188.37 278.717 1188.08 279.742 1188.08 281.075C1188.08 282.392 1188.37 283.417 1188.95 284.15C1189.54 284.867 1190.33 285.225 1191.33 285.225C1192.75 285.225 1193.67 284.592 1194.1 283.325H1197.88C1197.5 284.825 1196.74 286.017 1195.6 286.9C1194.47 287.783 1193.05 288.225 1191.35 288.225C1190.02 288.225 1188.84 287.933 1187.8 287.35C1186.77 286.75 1185.96 285.917 1185.38 284.85C1184.8 283.767 1184.5 282.508 1184.5 281.075ZM1199.54 281.075C1199.54 279.642 1199.84 278.392 1200.42 277.325C1201 276.242 1201.81 275.408 1202.84 274.825C1203.88 274.225 1205.06 273.925 1206.39 273.925C1208.11 273.925 1209.53 274.358 1210.64 275.225C1211.78 276.075 1212.54 277.275 1212.92 278.825H1209.14C1208.94 278.225 1208.6 277.758 1208.12 277.425C1207.65 277.075 1207.07 276.9 1206.37 276.9C1205.37 276.9 1204.58 277.267 1203.99 278C1203.41 278.717 1203.12 279.742 1203.12 281.075C1203.12 282.392 1203.41 283.417 1203.99 284.15C1204.58 284.867 1205.37 285.225 1206.37 285.225C1207.79 285.225 1208.71 284.592 1209.14 283.325H1212.92C1212.54 284.825 1211.78 286.017 1210.64 286.9C1209.51 287.783 1208.09 288.225 1206.39 288.225C1205.06 288.225 1203.88 287.933 1202.84 287.35C1201.81 286.75 1201 285.917 1200.42 284.85C1199.84 283.767 1199.54 282.508 1199.54 281.075ZM1221.63 288.225C1220.3 288.225 1219.1 287.933 1218.03 287.35C1216.97 286.75 1216.12 285.908 1215.51 284.825C1214.91 283.742 1214.61 282.492 1214.61 281.075C1214.61 279.658 1214.92 278.408 1215.53 277.325C1216.17 276.242 1217.02 275.408 1218.11 274.825C1219.19 274.225 1220.4 273.925 1221.73 273.925C1223.07 273.925 1224.27 274.225 1225.36 274.825C1226.44 275.408 1227.29 276.242 1227.91 277.325C1228.54 278.408 1228.86 279.658 1228.86 281.075C1228.86 282.492 1228.53 283.742 1227.88 284.825C1227.25 285.908 1226.38 286.75 1225.28 287.35C1224.2 287.933 1222.98 288.225 1221.63 288.225ZM1221.63 285.175C1222.27 285.175 1222.86 285.025 1223.41 284.725C1223.97 284.408 1224.42 283.942 1224.76 283.325C1225.09 282.708 1225.26 281.958 1225.26 281.075C1225.26 279.758 1224.91 278.75 1224.21 278.05C1223.52 277.333 1222.68 276.975 1221.68 276.975C1220.68 276.975 1219.84 277.333 1219.16 278.05C1218.49 278.75 1218.16 279.758 1218.16 281.075C1218.16 282.392 1218.48 283.408 1219.13 284.125C1219.8 284.825 1220.63 285.175 1221.63 285.175ZM1244.5 274.15V288H1240.98V286.25C1240.53 286.85 1239.93 287.325 1239.2 287.675C1238.48 288.008 1237.7 288.175 1236.85 288.175C1235.77 288.175 1234.81 287.95 1233.98 287.5C1233.14 287.033 1232.48 286.358 1232 285.475C1231.53 284.575 1231.3 283.508 1231.3 282.275V274.15H1234.8V281.775C1234.8 282.875 1235.08 283.725 1235.63 284.325C1236.18 284.908 1236.93 285.2 1237.88 285.2C1238.84 285.2 1239.6 284.908 1240.15 284.325C1240.7 283.725 1240.98 282.875 1240.98 281.775V274.15H1244.5ZM1255.63 273.95C1257.28 273.95 1258.61 274.475 1259.63 275.525C1260.65 276.558 1261.15 278.008 1261.15 279.875V288H1257.65V280.35C1257.65 279.25 1257.38 278.408 1256.83 277.825C1256.28 277.225 1255.53 276.925 1254.58 276.925C1253.61 276.925 1252.85 277.225 1252.28 277.825C1251.73 278.408 1251.45 279.25 1251.45 280.35V288H1247.95V274.15H1251.45V275.875C1251.92 275.275 1252.51 274.808 1253.23 274.475C1253.96 274.125 1254.76 273.95 1255.63 273.95ZM1268.56 277.025V283.725C1268.56 284.192 1268.67 284.533 1268.88 284.75C1269.12 284.95 1269.5 285.05 1270.03 285.05H1271.66V288H1269.46C1266.51 288 1265.03 286.567 1265.03 283.7V277.025H1263.38V274.15H1265.03V270.725H1268.56V274.15H1271.66V277.025H1268.56Z" fill="#444444"/>
<path d="M1012.77 861.3C1012.77 859.789 1013.11 858.44 1013.78 857.252C1014.47 856.049 1015.4 855.118 1016.58 854.458C1017.76 853.783 1019.09 853.446 1020.56 853.446C1022.27 853.446 1023.78 853.886 1025.07 854.766C1026.36 855.646 1027.26 856.863 1027.77 858.418H1024.23C1023.88 857.685 1023.38 857.135 1022.74 856.768C1022.11 856.401 1021.37 856.218 1020.54 856.218C1019.64 856.218 1018.84 856.431 1018.14 856.856C1017.45 857.267 1016.91 857.853 1016.51 858.616C1016.13 859.379 1015.94 860.273 1015.94 861.3C1015.94 862.312 1016.13 863.207 1016.51 863.984C1016.91 864.747 1017.45 865.341 1018.14 865.766C1018.84 866.177 1019.64 866.382 1020.54 866.382C1021.37 866.382 1022.11 866.199 1022.74 865.832C1023.38 865.451 1023.88 864.893 1024.23 864.16H1027.77C1027.26 865.729 1026.36 866.954 1025.07 867.834C1023.79 868.699 1022.29 869.132 1020.56 869.132C1019.09 869.132 1017.76 868.802 1016.58 868.142C1015.4 867.467 1014.47 866.536 1013.78 865.348C1013.11 864.16 1012.77 862.811 1012.77 861.3ZM1033.48 858.704C1033.88 858.059 1034.39 857.553 1035.02 857.186C1035.67 856.819 1036.4 856.636 1037.22 856.636V859.87H1036.41C1035.44 859.87 1034.71 860.097 1034.21 860.552C1033.73 861.007 1033.48 861.799 1033.48 862.928V869H1030.4V856.812H1033.48V858.704ZM1050.63 862.642C1050.63 863.082 1050.6 863.478 1050.54 863.83H1041.63C1041.7 864.71 1042.01 865.399 1042.56 865.898C1043.1 866.397 1043.77 866.646 1044.56 866.646C1045.7 866.646 1046.52 866.155 1047 865.172H1050.32C1049.97 866.345 1049.29 867.313 1048.3 868.076C1047.3 868.824 1046.08 869.198 1044.62 869.198C1043.45 869.198 1042.39 868.941 1041.46 868.428C1040.53 867.9 1039.81 867.159 1039.28 866.206C1038.76 865.253 1038.51 864.153 1038.51 862.906C1038.51 861.645 1038.76 860.537 1039.28 859.584C1039.79 858.631 1040.51 857.897 1041.43 857.384C1042.36 856.871 1043.42 856.614 1044.62 856.614C1045.78 856.614 1046.82 856.863 1047.73 857.362C1048.65 857.861 1049.36 858.572 1049.86 859.496C1050.37 860.405 1050.63 861.454 1050.63 862.642ZM1047.44 861.762C1047.42 860.97 1047.14 860.339 1046.58 859.87C1046.02 859.386 1045.34 859.144 1044.54 859.144C1043.77 859.144 1043.13 859.379 1042.6 859.848C1042.09 860.303 1041.77 860.941 1041.65 861.762H1047.44ZM1052.09 862.862C1052.09 861.63 1052.33 860.537 1052.81 859.584C1053.31 858.631 1053.98 857.897 1054.81 857.384C1055.66 856.871 1056.61 856.614 1057.65 856.614C1058.56 856.614 1059.35 856.797 1060.03 857.164C1060.72 857.531 1061.27 857.993 1061.68 858.55V856.812H1064.78V869H1061.68V867.218C1061.28 867.79 1060.73 868.267 1060.03 868.648C1059.34 869.015 1058.54 869.198 1057.63 869.198C1056.6 869.198 1055.66 868.934 1054.81 868.406C1053.98 867.878 1053.31 867.137 1052.81 866.184C1052.33 865.216 1052.09 864.109 1052.09 862.862ZM1061.68 862.906C1061.68 862.158 1061.53 861.52 1061.24 860.992C1060.94 860.449 1060.55 860.039 1060.05 859.76C1059.55 859.467 1059.02 859.32 1058.44 859.32C1057.87 859.32 1057.34 859.459 1056.86 859.738C1056.38 860.017 1055.98 860.427 1055.67 860.97C1055.38 861.498 1055.23 862.129 1055.23 862.862C1055.23 863.595 1055.38 864.241 1055.67 864.798C1055.98 865.341 1056.38 865.759 1056.86 866.052C1057.36 866.345 1057.89 866.492 1058.44 866.492C1059.02 866.492 1059.55 866.353 1060.05 866.074C1060.55 865.781 1060.94 865.37 1061.24 864.842C1061.53 864.299 1061.68 863.654 1061.68 862.906ZM1071.37 859.342V865.238C1071.37 865.649 1071.47 865.949 1071.66 866.14C1071.86 866.316 1072.2 866.404 1072.67 866.404H1074.1V869H1072.17C1069.57 869 1068.27 867.739 1068.27 865.216V859.342H1066.82V856.812H1068.27V853.798H1071.37V856.812H1074.1V859.342H1071.37ZM1087.65 862.642C1087.65 863.082 1087.62 863.478 1087.56 863.83H1078.65C1078.72 864.71 1079.03 865.399 1079.57 865.898C1080.12 866.397 1080.78 866.646 1081.57 866.646C1082.72 866.646 1083.53 866.155 1084.02 865.172H1087.34C1086.99 866.345 1086.31 867.313 1085.31 868.076C1084.32 868.824 1083.09 869.198 1081.64 869.198C1080.47 869.198 1079.41 868.941 1078.47 868.428C1077.55 867.9 1076.82 867.159 1076.29 866.206C1075.78 865.253 1075.52 864.153 1075.52 862.906C1075.52 861.645 1075.78 860.537 1076.29 859.584C1076.81 858.631 1077.53 857.897 1078.45 857.384C1079.37 856.871 1080.44 856.614 1081.64 856.614C1082.8 856.614 1083.83 856.863 1084.74 857.362C1085.67 857.861 1086.38 858.572 1086.88 859.496C1087.39 860.405 1087.65 861.454 1087.65 862.642ZM1084.46 861.762C1084.44 860.97 1084.16 860.339 1083.6 859.87C1083.04 859.386 1082.36 859.144 1081.55 859.144C1080.79 859.144 1080.14 859.379 1079.62 859.848C1079.1 860.303 1078.79 860.941 1078.67 861.762H1084.46ZM1094.35 862.862C1094.35 861.63 1094.59 860.537 1095.07 859.584C1095.57 858.631 1096.24 857.897 1097.07 857.384C1097.92 856.871 1098.87 856.614 1099.91 856.614C1100.82 856.614 1101.61 856.797 1102.29 857.164C1102.98 857.531 1103.53 857.993 1103.94 858.55V856.812H1107.04V869H1103.94V867.218C1103.54 867.79 1102.99 868.267 1102.29 868.648C1101.6 869.015 1100.8 869.198 1099.89 869.198C1098.86 869.198 1097.92 868.934 1097.07 868.406C1096.24 867.878 1095.57 867.137 1095.07 866.184C1094.59 865.216 1094.35 864.109 1094.35 862.862ZM1103.94 862.906C1103.94 862.158 1103.79 861.52 1103.5 860.992C1103.2 860.449 1102.81 860.039 1102.31 859.76C1101.81 859.467 1101.28 859.32 1100.7 859.32C1100.13 859.32 1099.6 859.459 1099.12 859.738C1098.64 860.017 1098.24 860.427 1097.93 860.97C1097.64 861.498 1097.49 862.129 1097.49 862.862C1097.49 863.595 1097.64 864.241 1097.93 864.798C1098.24 865.341 1098.64 865.759 1099.12 866.052C1099.62 866.345 1100.15 866.492 1100.7 866.492C1101.28 866.492 1101.81 866.353 1102.31 866.074C1102.81 865.781 1103.2 865.37 1103.5 864.842C1103.79 864.299 1103.94 863.654 1103.94 862.906ZM1109.26 862.906C1109.26 861.645 1109.51 860.545 1110.03 859.606C1110.54 858.653 1111.25 857.919 1112.16 857.406C1113.07 856.878 1114.11 856.614 1115.28 856.614C1116.79 856.614 1118.04 856.995 1119.02 857.758C1120.02 858.506 1120.69 859.562 1121.03 860.926H1117.7C1117.53 860.398 1117.23 859.987 1116.8 859.694C1116.39 859.386 1115.88 859.232 1115.26 859.232C1114.38 859.232 1113.68 859.555 1113.17 860.2C1112.66 860.831 1112.4 861.733 1112.4 862.906C1112.4 864.065 1112.66 864.967 1113.17 865.612C1113.68 866.243 1114.38 866.558 1115.26 866.558C1116.51 866.558 1117.32 866.001 1117.7 864.886H1121.03C1120.69 866.206 1120.02 867.255 1119.02 868.032C1118.03 868.809 1116.78 869.198 1115.28 869.198C1114.11 869.198 1113.07 868.941 1112.16 868.428C1111.25 867.9 1110.54 867.167 1110.03 866.228C1109.51 865.275 1109.26 864.167 1109.26 862.906ZM1122.49 862.906C1122.49 861.645 1122.75 860.545 1123.26 859.606C1123.77 858.653 1124.48 857.919 1125.39 857.406C1126.3 856.878 1127.34 856.614 1128.52 856.614C1130.03 856.614 1131.28 856.995 1132.26 857.758C1133.26 858.506 1133.92 859.562 1134.26 860.926H1130.94C1130.76 860.398 1130.46 859.987 1130.04 859.694C1129.63 859.386 1129.11 859.232 1128.5 859.232C1127.62 859.232 1126.92 859.555 1126.41 860.2C1125.89 860.831 1125.64 861.733 1125.64 862.906C1125.64 864.065 1125.89 864.967 1126.41 865.612C1126.92 866.243 1127.62 866.558 1128.5 866.558C1129.74 866.558 1130.56 866.001 1130.94 864.886H1134.26C1133.92 866.206 1133.26 867.255 1132.26 868.032C1131.26 868.809 1130.01 869.198 1128.52 869.198C1127.34 869.198 1126.3 868.941 1125.39 868.428C1124.48 867.9 1123.77 867.167 1123.26 866.228C1122.75 865.275 1122.49 864.167 1122.49 862.906ZM1141.93 869.198C1140.75 869.198 1139.7 868.941 1138.76 868.428C1137.82 867.9 1137.08 867.159 1136.54 866.206C1136.01 865.253 1135.75 864.153 1135.75 862.906C1135.75 861.659 1136.02 860.559 1136.56 859.606C1137.12 858.653 1137.87 857.919 1138.83 857.406C1139.78 856.878 1140.84 856.614 1142.02 856.614C1143.19 856.614 1144.25 856.878 1145.21 857.406C1146.16 857.919 1146.91 858.653 1147.45 859.606C1148.01 860.559 1148.29 861.659 1148.29 862.906C1148.29 864.153 1148 865.253 1147.43 866.206C1146.87 867.159 1146.11 867.9 1145.14 868.428C1144.19 868.941 1143.12 869.198 1141.93 869.198ZM1141.93 866.514C1142.49 866.514 1143.01 866.382 1143.49 866.118C1143.99 865.839 1144.38 865.429 1144.68 864.886C1144.97 864.343 1145.12 863.683 1145.12 862.906C1145.12 861.747 1144.81 860.86 1144.19 860.244C1143.59 859.613 1142.85 859.298 1141.97 859.298C1141.09 859.298 1140.35 859.613 1139.75 860.244C1139.16 860.86 1138.87 861.747 1138.87 862.906C1138.87 864.065 1139.16 864.959 1139.73 865.59C1140.31 866.206 1141.05 866.514 1141.93 866.514ZM1162.05 856.812V869H1158.95V867.46C1158.55 867.988 1158.03 868.406 1157.39 868.714C1156.76 869.007 1156.07 869.154 1155.32 869.154C1154.37 869.154 1153.52 868.956 1152.79 868.56C1152.06 868.149 1151.48 867.555 1151.05 866.778C1150.64 865.986 1150.44 865.047 1150.44 863.962V856.812H1153.52V863.522C1153.52 864.49 1153.76 865.238 1154.24 865.766C1154.73 866.279 1155.39 866.536 1156.22 866.536C1157.07 866.536 1157.74 866.279 1158.22 865.766C1158.71 865.238 1158.95 864.49 1158.95 863.522V856.812H1162.05ZM1171.84 856.636C1173.3 856.636 1174.47 857.098 1175.36 858.022C1176.26 858.931 1176.71 860.207 1176.71 861.85V869H1173.63V862.268C1173.63 861.3 1173.38 860.559 1172.9 860.046C1172.42 859.518 1171.76 859.254 1170.92 859.254C1170.07 859.254 1169.39 859.518 1168.9 860.046C1168.41 860.559 1168.17 861.3 1168.17 862.268V869H1165.09V856.812H1168.17V858.33C1168.58 857.802 1169.1 857.391 1169.73 857.098C1170.38 856.79 1171.08 856.636 1171.84 856.636ZM1183.22 859.342V865.238C1183.22 865.649 1183.32 865.949 1183.51 866.14C1183.71 866.316 1184.05 866.404 1184.52 866.404H1185.95V869H1184.01C1181.42 869 1180.12 867.739 1180.12 865.216V859.342H1178.67V856.812H1180.12V853.798H1183.22V856.812H1185.95V859.342H1183.22ZM1210.3 856.812L1206.74 869H1203.42L1201.19 860.486L1198.97 869H1195.63L1192.04 856.812H1195.17L1197.32 866.096L1199.65 856.812H1202.91L1205.2 866.074L1207.35 856.812H1210.3ZM1213.53 855.36C1212.99 855.36 1212.53 855.191 1212.17 854.854C1211.82 854.502 1211.64 854.069 1211.64 853.556C1211.64 853.043 1211.82 852.617 1212.17 852.28C1212.53 851.928 1212.99 851.752 1213.53 851.752C1214.07 851.752 1214.52 851.928 1214.87 852.28C1215.24 852.617 1215.42 853.043 1215.42 853.556C1215.42 854.069 1215.24 854.502 1214.87 854.854C1214.52 855.191 1214.07 855.36 1213.53 855.36ZM1215.05 856.812V869H1211.97V856.812H1215.05ZM1221.68 859.342V865.238C1221.68 865.649 1221.77 865.949 1221.96 866.14C1222.17 866.316 1222.51 866.404 1222.98 866.404H1224.41V869H1222.47C1219.87 869 1218.58 867.739 1218.58 865.216V859.342H1217.12V856.812H1218.58V853.798H1221.68V856.812H1224.41V859.342H1221.68ZM1233.49 856.636C1234.41 856.636 1235.23 856.841 1235.95 857.252C1236.67 857.648 1237.23 858.242 1237.62 859.034C1238.03 859.811 1238.24 860.75 1238.24 861.85V869H1235.16V862.268C1235.16 861.3 1234.92 860.559 1234.43 860.046C1233.95 859.518 1233.29 859.254 1232.45 859.254C1231.6 859.254 1230.93 859.518 1230.43 860.046C1229.94 860.559 1229.7 861.3 1229.7 862.268V869H1226.62V852.72H1229.7V858.33C1230.1 857.802 1230.63 857.391 1231.29 857.098C1231.95 856.79 1232.68 856.636 1233.49 856.636Z" fill="#444444"/>
<path d="M1026.03 553.8C1026.03 554.683 1025.82 555.517 1025.4 556.3C1024.98 557.083 1024.32 557.725 1023.4 558.225C1022.48 558.708 1021.31 558.95 1019.88 558.95H1016.73V566H1013.88V548.625H1019.88C1021.21 548.625 1022.33 548.858 1023.25 549.325C1024.18 549.775 1024.88 550.392 1025.33 551.175C1025.79 551.958 1026.03 552.833 1026.03 553.8ZM1019.88 556.625C1020.96 556.625 1021.77 556.383 1022.3 555.9C1022.83 555.4 1023.1 554.7 1023.1 553.8C1023.1 551.9 1022.03 550.95 1019.88 550.95H1016.73V556.625H1019.88ZM1027.79 559.05C1027.79 557.667 1028.08 556.442 1028.64 555.375C1029.23 554.308 1030.01 553.483 1030.99 552.9C1031.99 552.3 1033.09 552 1034.29 552C1035.38 552 1036.32 552.217 1037.12 552.65C1037.93 553.067 1038.58 553.592 1039.07 554.225V552.225H1041.94V566H1039.07V563.95C1038.58 564.6 1037.93 565.142 1037.09 565.575C1036.26 566.008 1035.31 566.225 1034.24 566.225C1033.06 566.225 1031.98 565.925 1030.99 565.325C1030.01 564.708 1029.23 563.858 1028.64 562.775C1028.08 561.675 1027.79 560.433 1027.79 559.05ZM1039.07 559.1C1039.07 558.15 1038.87 557.325 1038.47 556.625C1038.08 555.925 1037.58 555.392 1036.94 555.025C1036.31 554.658 1035.63 554.475 1034.89 554.475C1034.16 554.475 1033.48 554.658 1032.84 555.025C1032.21 555.375 1031.69 555.9 1031.29 556.6C1030.91 557.283 1030.72 558.1 1030.72 559.05C1030.72 560 1030.91 560.833 1031.29 561.55C1031.69 562.267 1032.21 562.817 1032.84 563.2C1033.49 563.567 1034.18 563.75 1034.89 563.75C1035.63 563.75 1036.31 563.567 1036.94 563.2C1037.58 562.833 1038.08 562.3 1038.47 561.6C1038.87 560.883 1039.07 560.05 1039.07 559.1ZM1050.69 566.225C1049.6 566.225 1048.63 566.033 1047.76 565.65C1046.91 565.25 1046.24 564.717 1045.74 564.05C1045.24 563.367 1044.97 562.608 1044.94 561.775H1047.89C1047.94 562.358 1048.21 562.85 1048.71 563.25C1049.23 563.633 1049.87 563.825 1050.64 563.825C1051.44 563.825 1052.05 563.675 1052.49 563.375C1052.94 563.058 1053.16 562.658 1053.16 562.175C1053.16 561.658 1052.91 561.275 1052.41 561.025C1051.93 560.775 1051.15 560.5 1050.09 560.2C1049.05 559.917 1048.21 559.642 1047.56 559.375C1046.91 559.108 1046.34 558.7 1045.86 558.15C1045.39 557.6 1045.16 556.875 1045.16 555.975C1045.16 555.242 1045.38 554.575 1045.81 553.975C1046.24 553.358 1046.86 552.875 1047.66 552.525C1048.48 552.175 1049.41 552 1050.46 552C1052.03 552 1053.29 552.4 1054.24 553.2C1055.2 553.983 1055.72 555.058 1055.79 556.425H1052.94C1052.89 555.808 1052.64 555.317 1052.19 554.95C1051.74 554.583 1051.13 554.4 1050.36 554.4C1049.61 554.4 1049.04 554.542 1048.64 554.825C1048.24 555.108 1048.04 555.483 1048.04 555.95C1048.04 556.317 1048.17 556.625 1048.44 556.875C1048.7 557.125 1049.03 557.325 1049.41 557.475C1049.79 557.608 1050.36 557.783 1051.11 558C1052.11 558.267 1052.93 558.542 1053.56 558.825C1054.21 559.092 1054.77 559.492 1055.24 560.025C1055.7 560.558 1055.94 561.267 1055.96 562.15C1055.96 562.933 1055.74 563.633 1055.31 564.25C1054.88 564.867 1054.26 565.35 1053.46 565.7C1052.68 566.05 1051.75 566.225 1050.69 566.225ZM1064.04 566.225C1062.96 566.225 1061.98 566.033 1061.12 565.65C1060.27 565.25 1059.59 564.717 1059.09 564.05C1058.59 563.367 1058.32 562.608 1058.29 561.775H1061.24C1061.29 562.358 1061.57 562.85 1062.07 563.25C1062.58 563.633 1063.22 563.825 1063.99 563.825C1064.79 563.825 1065.41 563.675 1065.84 563.375C1066.29 563.058 1066.52 562.658 1066.52 562.175C1066.52 561.658 1066.27 561.275 1065.77 561.025C1065.28 560.775 1064.51 560.5 1063.44 560.2C1062.41 559.917 1061.57 559.642 1060.92 559.375C1060.27 559.108 1059.7 558.7 1059.22 558.15C1058.75 557.6 1058.52 556.875 1058.52 555.975C1058.52 555.242 1058.73 554.575 1059.17 553.975C1059.6 553.358 1060.22 552.875 1061.02 552.525C1061.83 552.175 1062.77 552 1063.82 552C1065.38 552 1066.64 552.4 1067.59 553.2C1068.56 553.983 1069.07 555.058 1069.14 556.425H1066.29C1066.24 555.808 1065.99 555.317 1065.54 554.95C1065.09 554.583 1064.48 554.4 1063.72 554.4C1062.97 554.4 1062.39 554.542 1061.99 554.825C1061.59 555.108 1061.39 555.483 1061.39 555.95C1061.39 556.317 1061.52 556.625 1061.79 556.875C1062.06 557.125 1062.38 557.325 1062.77 557.475C1063.15 557.608 1063.72 557.783 1064.47 558C1065.47 558.267 1066.28 558.542 1066.92 558.825C1067.57 559.092 1068.12 559.492 1068.59 560.025C1069.06 560.558 1069.3 561.267 1069.32 562.15C1069.32 562.933 1069.1 563.633 1068.67 564.25C1068.23 564.867 1067.62 565.35 1066.82 565.7C1066.03 566.05 1065.11 566.225 1064.04 566.225ZM1090.9 552.225L1086.62 566H1083.62L1080.85 555.825L1078.07 566H1075.07L1070.77 552.225H1073.67L1076.55 563.3L1079.47 552.225H1082.45L1085.25 563.25L1088.1 552.225H1090.9ZM1099 566.225C1097.7 566.225 1096.53 565.933 1095.48 565.35C1094.43 564.75 1093.6 563.917 1093 562.85C1092.4 561.767 1092.1 560.517 1092.1 559.1C1092.1 557.7 1092.41 556.458 1093.03 555.375C1093.64 554.292 1094.48 553.458 1095.55 552.875C1096.62 552.292 1097.81 552 1099.13 552C1100.44 552 1101.63 552.292 1102.7 552.875C1103.77 553.458 1104.61 554.292 1105.23 555.375C1105.84 556.458 1106.15 557.7 1106.15 559.1C1106.15 560.5 1105.83 561.742 1105.2 562.825C1104.57 563.908 1103.7 564.75 1102.6 565.35C1101.52 565.933 1100.32 566.225 1099 566.225ZM1099 563.75C1099.73 563.75 1100.42 563.575 1101.05 563.225C1101.7 562.875 1102.23 562.35 1102.63 561.65C1103.03 560.95 1103.23 560.1 1103.23 559.1C1103.23 558.1 1103.03 557.258 1102.65 556.575C1102.27 555.875 1101.76 555.35 1101.13 555C1100.49 554.65 1099.81 554.475 1099.08 554.475C1098.34 554.475 1097.66 554.65 1097.03 555C1096.41 555.35 1095.92 555.875 1095.55 556.575C1095.18 557.258 1095 558.1 1095 559.1C1095 560.583 1095.38 561.733 1096.13 562.55C1096.89 563.35 1097.85 563.75 1099 563.75ZM1111.82 554.225C1112.23 553.525 1112.78 552.983 1113.47 552.6C1114.17 552.2 1114.99 552 1115.94 552V554.95H1115.22C1114.1 554.95 1113.25 555.233 1112.67 555.8C1112.1 556.367 1111.82 557.35 1111.82 558.75V566H1108.97V552.225H1111.82V554.225ZM1117.61 559.05C1117.61 557.667 1117.9 556.442 1118.46 555.375C1119.05 554.308 1119.83 553.483 1120.81 552.9C1121.81 552.3 1122.92 552 1124.14 552C1125.04 552 1125.92 552.2 1126.79 552.6C1127.67 552.983 1128.37 553.5 1128.89 554.15V547.5H1131.76V566H1128.89V563.925C1128.42 564.592 1127.77 565.142 1126.94 565.575C1126.12 566.008 1125.18 566.225 1124.11 566.225C1122.91 566.225 1121.81 565.925 1120.81 565.325C1119.83 564.708 1119.05 563.858 1118.46 562.775C1117.9 561.675 1117.61 560.433 1117.61 559.05ZM1128.89 559.1C1128.89 558.15 1128.69 557.325 1128.29 556.625C1127.9 555.925 1127.4 555.392 1126.76 555.025C1126.13 554.658 1125.45 554.475 1124.71 554.475C1123.98 554.475 1123.3 554.658 1122.66 555.025C1122.03 555.375 1121.51 555.9 1121.11 556.6C1120.73 557.283 1120.54 558.1 1120.54 559.05C1120.54 560 1120.73 560.833 1121.11 561.55C1121.51 562.267 1122.03 562.817 1122.66 563.2C1123.31 563.567 1124 563.75 1124.71 563.75C1125.45 563.75 1126.13 563.567 1126.76 563.2C1127.4 562.833 1127.9 562.3 1128.29 561.6C1128.69 560.883 1128.89 560.05 1128.89 559.1Z" fill="black"/>
<path d="M1016.73 377.925V383.025H1022.73V385.35H1016.73V390.675H1023.48V393H1013.88V375.6H1023.48V377.925H1016.73ZM1043.66 379C1044.74 379 1045.71 379.225 1046.56 379.675C1047.43 380.125 1048.1 380.792 1048.59 381.675C1049.09 382.558 1049.34 383.625 1049.34 384.875V393H1046.51V385.3C1046.51 384.067 1046.2 383.125 1045.59 382.475C1044.97 381.808 1044.13 381.475 1043.06 381.475C1041.99 381.475 1041.14 381.808 1040.51 382.475C1039.89 383.125 1039.59 384.067 1039.59 385.3V393H1036.76V385.3C1036.76 384.067 1036.45 383.125 1035.84 382.475C1035.22 381.808 1034.38 381.475 1033.31 381.475C1032.24 381.475 1031.39 381.808 1030.76 382.475C1030.14 383.125 1029.84 384.067 1029.84 385.3V393H1026.99V379.225H1029.84V380.8C1030.3 380.233 1030.89 379.792 1031.61 379.475C1032.33 379.158 1033.09 379 1033.91 379C1035.01 379 1035.99 379.233 1036.86 379.7C1037.73 380.167 1038.39 380.842 1038.86 381.725C1039.28 380.892 1039.93 380.233 1040.81 379.75C1041.69 379.25 1042.64 379 1043.66 379ZM1052.01 386.05C1052.01 384.667 1052.3 383.442 1052.86 382.375C1053.45 381.308 1054.23 380.483 1055.21 379.9C1056.21 379.3 1057.31 379 1058.51 379C1059.6 379 1060.54 379.217 1061.34 379.65C1062.15 380.067 1062.8 380.592 1063.29 381.225V379.225H1066.16V393H1063.29V390.95C1062.8 391.6 1062.15 392.142 1061.31 392.575C1060.48 393.008 1059.53 393.225 1058.46 393.225C1057.28 393.225 1056.2 392.925 1055.21 392.325C1054.23 391.708 1053.45 390.858 1052.86 389.775C1052.3 388.675 1052.01 387.433 1052.01 386.05ZM1063.29 386.1C1063.29 385.15 1063.09 384.325 1062.69 383.625C1062.3 382.925 1061.8 382.392 1061.16 382.025C1060.53 381.658 1059.85 381.475 1059.11 381.475C1058.38 381.475 1057.7 381.658 1057.06 382.025C1056.43 382.375 1055.91 382.9 1055.51 383.6C1055.13 384.283 1054.94 385.1 1054.94 386.05C1054.94 387 1055.13 387.833 1055.51 388.55C1055.91 389.267 1056.43 389.817 1057.06 390.2C1057.71 390.567 1058.4 390.75 1059.11 390.75C1059.85 390.75 1060.53 390.567 1061.16 390.2C1061.8 389.833 1062.3 389.3 1062.69 388.6C1063.09 387.883 1063.29 387.05 1063.29 386.1ZM1071.36 377.4C1070.84 377.4 1070.41 377.225 1070.06 376.875C1069.71 376.525 1069.53 376.092 1069.53 375.575C1069.53 375.058 1069.71 374.625 1070.06 374.275C1070.41 373.925 1070.84 373.75 1071.36 373.75C1071.86 373.75 1072.28 373.925 1072.63 374.275C1072.98 374.625 1073.16 375.058 1073.16 375.575C1073.16 376.092 1072.98 376.525 1072.63 376.875C1072.28 377.225 1071.86 377.4 1071.36 377.4ZM1072.76 379.225V393H1069.91V379.225H1072.76ZM1079.35 374.5V393H1076.5V374.5H1079.35Z" fill="black"/>
<rect x="1014" y="403" width="709" height="78" rx="12" stroke="#929292" stroke-width="4"/>
<rect x="1014" y="577" width="709" height="78" rx="12" stroke="#929292" stroke-width="4"/>
<rect x="1012" y="720" width="200" height="76" rx="14" fill="#D05D97"/>
<path d="M1081.43 765.114H1087.41V768H1077.79V749.852H1081.43V765.114ZM1096.12 768.234C1094.74 768.234 1093.49 767.931 1092.38 767.324C1091.27 766.7 1090.39 765.825 1089.75 764.698C1089.13 763.571 1088.82 762.271 1088.82 760.798C1088.82 759.325 1089.14 758.025 1089.78 756.898C1090.44 755.771 1091.33 754.905 1092.46 754.298C1093.58 753.674 1094.84 753.362 1096.23 753.362C1097.61 753.362 1098.87 753.674 1100 754.298C1101.12 754.905 1102.01 755.771 1102.65 756.898C1103.31 758.025 1103.64 759.325 1103.64 760.798C1103.64 762.271 1103.3 763.571 1102.62 764.698C1101.96 765.825 1101.06 766.7 1099.92 767.324C1098.79 767.931 1097.53 768.234 1096.12 768.234ZM1096.12 765.062C1096.78 765.062 1097.4 764.906 1097.97 764.594C1098.56 764.265 1099.03 763.779 1099.37 763.138C1099.72 762.497 1099.89 761.717 1099.89 760.798C1099.89 759.429 1099.53 758.38 1098.8 757.652C1098.09 756.907 1097.22 756.534 1096.18 756.534C1095.14 756.534 1094.26 756.907 1093.55 757.652C1092.86 758.38 1092.51 759.429 1092.51 760.798C1092.51 762.167 1092.85 763.225 1093.52 763.97C1094.22 764.698 1095.08 765.062 1096.12 765.062ZM1111.95 753.362C1113.02 753.362 1113.97 753.579 1114.78 754.012C1115.6 754.428 1116.24 754.974 1116.71 755.65V753.596H1120.37V768.104C1120.37 769.439 1120.11 770.626 1119.57 771.666C1119.03 772.723 1118.22 773.555 1117.15 774.162C1116.08 774.786 1114.78 775.098 1113.25 775.098C1111.2 775.098 1109.52 774.621 1108.21 773.668C1106.91 772.715 1106.17 771.415 1106 769.768H1109.61C1109.8 770.427 1110.21 770.947 1110.83 771.328C1111.47 771.727 1112.24 771.926 1113.15 771.926C1114.2 771.926 1115.06 771.605 1115.72 770.964C1116.38 770.34 1116.71 769.387 1116.71 768.104V765.868C1116.24 766.544 1115.59 767.107 1114.76 767.558C1113.94 768.009 1113.01 768.234 1111.95 768.234C1110.74 768.234 1109.63 767.922 1108.62 767.298C1107.62 766.674 1106.82 765.799 1106.23 764.672C1105.66 763.528 1105.37 762.219 1105.37 760.746C1105.37 759.29 1105.66 757.999 1106.23 756.872C1106.82 755.745 1107.61 754.879 1108.6 754.272C1109.6 753.665 1110.72 753.362 1111.95 753.362ZM1116.71 760.798C1116.71 759.914 1116.53 759.16 1116.19 758.536C1115.84 757.895 1115.37 757.409 1114.78 757.08C1114.19 756.733 1113.56 756.56 1112.89 756.56C1112.21 756.56 1111.59 756.725 1111.01 757.054C1110.44 757.383 1109.97 757.869 1109.61 758.51C1109.26 759.134 1109.09 759.879 1109.09 760.746C1109.09 761.613 1109.26 762.375 1109.61 763.034C1109.97 763.675 1110.44 764.169 1111.01 764.516C1111.6 764.863 1112.23 765.036 1112.89 765.036C1113.56 765.036 1114.19 764.871 1114.78 764.542C1115.37 764.195 1115.84 763.71 1116.19 763.086C1116.53 762.445 1116.71 761.682 1116.71 760.798ZM1125.77 751.88C1125.13 751.88 1124.6 751.681 1124.16 751.282C1123.75 750.866 1123.54 750.355 1123.54 749.748C1123.54 749.141 1123.75 748.639 1124.16 748.24C1124.6 747.824 1125.13 747.616 1125.77 747.616C1126.42 747.616 1126.94 747.824 1127.36 748.24C1127.79 748.639 1128.01 749.141 1128.01 749.748C1128.01 750.355 1127.79 750.866 1127.36 751.282C1126.94 751.681 1126.42 751.88 1125.77 751.88ZM1127.57 753.596V768H1123.93V753.596H1127.57ZM1139.15 753.388C1140.86 753.388 1142.25 753.934 1143.31 755.026C1144.36 756.101 1144.89 757.609 1144.89 759.55V768H1141.25V760.044C1141.25 758.9 1140.97 758.025 1140.4 757.418C1139.82 756.794 1139.04 756.482 1138.06 756.482C1137.05 756.482 1136.25 756.794 1135.66 757.418C1135.09 758.025 1134.81 758.9 1134.81 760.044V768H1131.17V753.596H1134.81V755.39C1135.29 754.766 1135.91 754.281 1136.65 753.934C1137.41 753.57 1138.25 753.388 1139.15 753.388Z" fill="white"/>
<rect x="100" y="64" width="751" height="955" fill="#FEE8F3"/>
<path d="M530.402 501.468C517.929 524.297 493.425 539.799 465.004 539.133C429.254 538.307 399.111 510.951 394.968 475.549C390.028 433.378 422.044 396.678 463.809 394.94C490.251 393.835 513.969 407.03 527.453 427.639C531.177 433.324 538.818 434.901 544.467 431.115C549.945 427.435 551.549 420.043 547.943 414.519C529.326 385.961 496.008 368.002 459.139 370.899C408.204 374.911 368.828 418.541 370.152 469.467C371.551 523.428 416.975 565.588 470.869 563.346C506.113 561.877 536.138 541.773 551.839 512.979C555.003 507.186 552.775 499.923 546.996 496.705C541.099 493.411 533.641 495.546 530.402 501.468Z" fill="#CD5390"/>
<path d="M570.063 500.76C551.144 478.264 530.568 474.487 508.346 489.431C530.568 474.487 532.226 455.757 513.296 433.26C532.215 455.757 551.005 457.409 569.644 438.195C551.005 457.409 551.144 478.264 570.063 500.76Z" fill="#CD5390"/>
<path d="M353.536 751.783C354.432 750.311 355.68 749.575 357.28 749.575C357.984 749.575 358.72 749.799 359.488 750.247C360.512 750.823 361.152 751.687 361.408 752.839C361.728 753.991 361.6 755.079 361.024 756.103C359.424 758.855 357.472 761.351 355.168 763.591C352.928 765.831 350.464 767.719 347.776 769.255C345.088 770.791 342.208 771.975 339.136 772.807C336.128 773.639 333.024 774.055 329.824 774.055C324.832 774.055 320.128 773.127 315.712 771.271C311.36 769.351 307.552 766.759 304.288 763.495C301.024 760.231 298.432 756.423 296.512 752.071C294.656 747.655 293.728 742.951 293.728 737.959C293.728 732.967 294.656 728.295 296.512 723.943C298.432 719.527 301.024 715.687 304.288 712.423C307.552 709.159 311.36 706.599 315.712 704.743C320.128 702.823 324.832 701.863 329.824 701.863C333.024 701.863 336.128 702.279 339.136 703.111C342.208 703.943 345.088 705.127 347.776 706.663C350.464 708.199 352.928 710.087 355.168 712.327C357.472 714.503 359.424 716.967 361.024 719.719C361.664 720.807 361.824 721.895 361.504 722.983C361.248 723.943 360.736 724.743 359.968 725.383C359.2 725.959 358.304 726.247 357.28 726.247C355.68 726.247 354.432 725.543 353.536 724.135C352.32 722.023 350.848 720.135 349.12 718.471C347.456 716.743 345.6 715.303 343.552 714.151C341.504 712.999 339.296 712.103 336.928 711.463C334.624 710.823 332.256 710.503 329.824 710.503C326.048 710.503 322.496 711.239 319.168 712.711C315.84 714.119 312.928 716.071 310.432 718.567C307.936 721.063 305.952 723.975 304.48 727.303C303.072 730.631 302.368 734.183 302.368 737.959C302.368 741.735 303.072 745.287 304.48 748.615C305.952 751.943 307.936 754.855 310.432 757.351C312.928 759.847 315.84 761.831 319.168 763.303C322.496 764.711 326.048 765.415 329.824 765.415C332.256 765.415 334.624 765.095 336.928 764.455C339.296 763.815 341.504 762.919 343.552 761.767C345.6 760.615 347.456 759.207 349.12 757.543C350.848 755.815 352.32 753.895 353.536 751.783ZM407.122 767.815C404.818 769.863 402.226 771.431 399.346 772.519C396.53 773.543 393.586 774.055 390.514 774.055C387.058 774.055 383.794 773.415 380.722 772.135C377.65 770.791 374.962 768.967 372.658 766.663C370.354 764.359 368.53 761.671 367.186 758.599C365.906 755.527 365.266 752.263 365.266 748.807C365.266 745.287 365.906 741.991 367.186 738.919C368.53 735.847 370.354 733.191 372.658 730.951C374.962 728.647 377.65 726.823 380.722 725.479C383.794 724.135 387.058 723.463 390.514 723.463C394.034 723.463 397.33 724.135 400.402 725.479C403.474 726.823 406.13 728.647 408.37 730.951C410.674 733.191 412.466 735.847 413.746 738.919C415.09 741.991 415.762 745.287 415.762 748.807V769.735C415.762 770.951 415.346 771.975 414.514 772.807C413.682 773.639 412.658 774.055 411.442 774.055C410.226 774.055 409.202 773.639 408.37 772.807C407.538 771.975 407.122 770.951 407.122 769.735V767.815ZM390.514 732.199C388.21 732.199 386.034 732.647 383.986 733.543C382.002 734.375 380.242 735.559 378.706 737.095C377.234 738.567 376.05 740.327 375.154 742.375C374.322 744.359 373.906 746.503 373.906 748.807C373.906 751.111 374.322 753.287 375.154 755.335C376.05 757.319 377.234 759.079 378.706 760.615C380.242 762.087 382.002 763.271 383.986 764.167C386.034 764.999 388.21 765.415 390.514 765.415C392.818 765.415 394.962 764.999 396.946 764.167C398.994 763.271 400.754 762.087 402.226 760.615C403.762 759.079 404.946 757.319 405.778 755.335C406.674 753.287 407.122 751.111 407.122 748.807C407.122 746.503 406.674 744.359 405.778 742.375C404.946 740.327 403.762 738.567 402.226 737.095C400.754 735.559 398.994 734.375 396.946 733.543C394.962 732.647 392.818 732.199 390.514 732.199ZM432.087 769.735C432.087 770.951 431.671 771.975 430.839 772.807C430.007 773.639 428.983 774.055 427.767 774.055C426.551 774.055 425.527 773.639 424.695 772.807C423.863 771.975 423.447 770.951 423.447 769.735V706.183C423.447 704.967 423.863 703.943 424.695 703.111C425.527 702.279 426.551 701.863 427.767 701.863C428.983 701.863 430.007 702.279 430.839 703.111C431.671 703.943 432.087 704.967 432.087 706.183V769.735ZM471.411 729.127C472.755 727.527 474.515 726.215 476.691 725.191C478.867 724.103 481.651 723.559 485.042 723.559C487.347 723.431 489.587 723.783 491.763 724.615C493.939 725.383 495.859 726.599 497.523 728.263C498.867 729.607 499.891 731.079 500.595 732.679C501.299 734.279 501.811 735.847 502.131 737.383C502.451 738.855 502.611 740.199 502.611 741.415C502.675 742.567 502.707 743.367 502.707 743.815V769.735C502.707 770.951 502.259 771.975 501.363 772.807C500.531 773.639 499.539 774.055 498.387 774.055C497.171 774.055 496.115 773.639 495.219 772.807C494.387 771.975 493.971 770.951 493.971 769.735C493.971 764.807 493.971 760.423 493.971 756.583C493.971 754.919 493.971 753.319 493.971 751.783C493.971 750.183 494.003 748.743 494.067 747.463C494.067 745.991 494.067 744.615 494.067 743.335C494.131 742.247 494.099 741.159 493.971 740.071C493.843 739.175 493.587 738.215 493.203 737.191C492.883 736.103 492.307 735.143 491.475 734.311C489.555 732.711 487.411 732.007 485.042 732.199C483.123 732.199 481.555 732.519 480.339 733.159C479.187 733.799 478.259 734.599 477.555 735.559C476.915 736.455 476.467 737.447 476.211 738.535C475.955 739.559 475.795 740.487 475.731 741.319C475.731 741.447 475.731 741.959 475.731 742.855C475.795 743.751 475.827 744.871 475.827 746.215C475.827 747.559 475.795 749.095 475.731 750.823C475.731 752.487 475.731 754.183 475.731 755.911C475.731 760.007 475.731 764.615 475.731 769.735C475.731 770.951 475.315 771.975 474.483 772.807C473.651 773.639 472.627 774.055 471.411 774.055C470.195 774.055 469.171 773.639 468.339 772.807C467.507 771.975 467.091 770.951 467.091 769.735C467.091 764.679 467.091 760.103 467.091 756.007V740.935C467.091 738.439 466.227 736.231 464.499 734.311C463.603 733.543 462.579 732.967 461.427 732.583C460.339 732.199 459.219 732.071 458.067 732.199C455.571 732.199 453.683 732.743 452.403 733.831C451.123 734.855 450.227 736.039 449.715 737.383C449.203 738.663 448.915 739.911 448.851 741.127C448.851 742.279 448.851 742.983 448.851 743.239C448.851 743.239 448.851 743.623 448.851 744.391C448.851 745.159 448.851 746.183 448.851 747.463C448.851 748.679 448.851 750.087 448.851 751.687C448.915 753.287 448.947 754.919 448.947 756.583C448.947 760.423 448.947 764.807 448.947 769.735C448.947 770.951 448.499 771.975 447.603 772.807C446.771 773.639 445.747 774.055 444.531 774.055C443.379 774.055 442.355 773.639 441.459 772.807C440.627 771.975 440.211 770.951 440.211 769.735V743.815C440.211 743.367 440.211 742.567 440.211 741.415C440.275 740.263 440.435 738.951 440.691 737.479C441.011 735.943 441.523 734.375 442.227 732.775C442.931 731.111 443.955 729.607 445.299 728.263C446.643 726.919 448.339 725.799 450.387 724.903C452.499 724.007 455.059 723.559 458.067 723.559C460.371 723.431 462.611 723.783 464.786 724.615C467.027 725.383 468.979 726.567 470.643 728.167C470.899 728.423 471.155 728.743 471.411 729.127ZM533.577 774.055C530.121 774.055 526.857 773.415 523.785 772.135C520.713 770.791 518.025 768.967 515.721 766.663C513.417 764.359 511.593 761.671 510.249 758.599C508.969 755.527 508.329 752.263 508.329 748.807C508.329 745.287 508.969 741.991 510.249 738.919C511.593 735.847 513.417 733.191 515.721 730.951C518.025 728.647 520.713 726.823 523.785 725.479C526.857 724.135 530.121 723.463 533.577 723.463C537.097 723.463 540.393 724.135 543.465 725.479C546.537 726.823 549.193 728.647 551.433 730.951C553.737 733.191 555.561 735.847 556.905 738.919C558.249 741.991 558.921 745.287 558.921 748.807C558.921 752.263 558.249 755.527 556.905 758.599C555.561 761.671 553.737 764.359 551.433 766.663C549.193 768.967 546.537 770.791 543.465 772.135C540.393 773.415 537.097 774.055 533.577 774.055ZM533.577 765.415C535.881 765.415 538.025 764.999 540.009 764.167C542.057 763.271 543.817 762.087 545.289 760.615C546.825 759.079 548.009 757.319 548.841 755.335C549.737 753.287 550.185 751.111 550.185 748.807C550.185 746.503 549.737 744.359 548.841 742.375C548.009 740.327 546.825 738.567 545.289 737.095C543.817 735.559 542.057 734.375 540.009 733.543C538.025 732.647 535.881 732.199 533.577 732.199C531.273 732.199 529.097 732.647 527.049 733.543C525.065 734.375 523.305 735.559 521.769 737.095C520.297 738.567 519.113 740.327 518.217 742.375C517.385 744.359 516.969 746.503 516.969 748.807C516.969 751.111 517.385 753.287 518.217 755.335C519.113 757.319 520.297 759.079 521.769 760.615C523.305 762.087 525.065 763.271 527.049 764.167C529.097 764.999 531.273 765.415 533.577 765.415ZM588.521 724.039C589.737 724.039 590.761 724.455 591.593 725.287C592.425 726.119 592.841 727.143 592.841 728.359C592.841 729.575 592.425 730.599 591.593 731.431C590.761 732.263 589.737 732.679 588.521 732.679H580.649C578.601 732.679 576.873 733.383 575.465 734.791C574.057 736.135 573.353 737.831 573.353 739.879V769.735C573.353 770.951 572.937 771.975 572.105 772.807C571.273 773.639 570.249 774.055 569.033 774.055C567.817 774.055 566.793 773.639 565.961 772.807C565.129 771.975 564.713 770.951 564.713 769.735V739.879C564.713 737.639 565.129 735.559 565.961 733.639C566.793 731.719 567.913 730.055 569.321 728.647C570.793 727.175 572.489 726.055 574.409 725.287C576.393 724.455 578.473 724.039 580.649 724.039H588.521ZM635.216 767.815C632.912 769.863 630.32 771.431 627.44 772.519C624.624 773.543 621.68 774.055 618.608 774.055C615.152 774.055 611.888 773.415 608.816 772.135C605.744 770.791 603.056 768.967 600.752 766.663C598.448 764.359 596.624 761.671 595.28 758.599C594 755.527 593.36 752.263 593.36 748.807C593.36 745.287 594 741.991 595.28 738.919C596.624 735.847 598.448 733.191 600.752 730.951C603.056 728.647 605.744 726.823 608.816 725.479C611.888 724.135 615.152 723.463 618.608 723.463C622.128 723.463 625.424 724.135 628.496 725.479C631.568 726.823 634.224 728.647 636.464 730.951C638.768 733.191 640.56 735.847 641.84 738.919C643.184 741.991 643.856 745.287 643.856 748.807V769.735C643.856 770.951 643.44 771.975 642.608 772.807C641.776 773.639 640.752 774.055 639.536 774.055C638.32 774.055 637.296 773.639 636.464 772.807C635.632 771.975 635.216 770.951 635.216 769.735V767.815ZM618.608 732.199C616.304 732.199 614.128 732.647 612.08 733.543C610.096 734.375 608.336 735.559 606.8 737.095C605.328 738.567 604.144 740.327 603.248 742.375C602.416 744.359 602 746.503 602 748.807C602 751.111 602.416 753.287 603.248 755.335C604.144 757.319 605.328 759.079 606.8 760.615C608.336 762.087 610.096 763.271 612.08 764.167C614.128 764.999 616.304 765.415 618.608 765.415C620.912 765.415 623.056 764.999 625.04 764.167C627.088 763.271 628.848 762.087 630.32 760.615C631.856 759.079 633.04 757.319 633.872 755.335C634.768 753.287 635.216 751.111 635.216 748.807C635.216 746.503 634.768 744.359 633.872 742.375C633.04 740.327 631.856 738.567 630.32 737.095C628.848 735.559 627.088 734.375 625.04 733.543C623.056 732.647 620.912 732.199 618.608 732.199Z" fill="#CD5390"/>
<path fill-rule="evenodd" clip-rule="evenodd" d="M1664.85 616C1665 616.252 1665.19 616.573 1665.43 616.943C1666.05 617.895 1666.96 619.161 1668.14 620.421C1670.53 622.969 1673.87 625.333 1678 625.333C1682.13 625.333 1685.47 622.969 1687.86 620.421C1689.04 619.161 1689.95 617.895 1690.57 616.943C1690.81 616.573 1691 616.252 1691.15 616C1691 615.748 1690.81 615.427 1690.57 615.057C1689.95 614.105 1689.04 612.839 1687.86 611.579C1685.47 609.031 1682.13 606.667 1678 606.667C1673.87 606.667 1670.53 609.031 1668.14 611.579C1666.96 612.839 1666.05 614.105 1665.43 615.057C1665.19 615.427 1665 615.748 1664.85 616ZM1692.67 616C1693.86 615.404 1693.86 615.403 1693.86 615.403L1693.86 615.398L1693.85 615.389L1693.84 615.36C1693.82 615.335 1693.81 615.3 1693.78 615.257C1693.74 615.169 1693.67 615.044 1693.58 614.888C1693.41 614.576 1693.15 614.135 1692.81 613.61C1692.13 612.562 1691.12 611.161 1689.81 609.755C1687.19 606.969 1683.2 604 1678 604C1672.8 604 1668.81 606.969 1666.19 609.755C1664.88 611.161 1663.87 612.562 1663.19 613.61C1662.85 614.135 1662.59 614.576 1662.42 614.888C1662.33 615.044 1662.26 615.169 1662.22 615.257C1662.19 615.3 1662.18 615.335 1662.16 615.36L1662.15 615.389L1662.14 615.398L1662.14 615.402C1662.14 615.402 1662.14 615.404 1663.33 616L1662.14 615.404C1661.95 615.779 1661.95 616.221 1662.14 616.596L1663.33 616C1662.14 616.596 1662.14 616.596 1662.14 616.596L1662.14 616.602L1662.15 616.611L1662.16 616.64C1662.18 616.665 1662.19 616.7 1662.22 616.743C1662.26 616.831 1662.33 616.956 1662.42 617.112C1662.59 617.424 1662.85 617.865 1663.19 618.39C1663.87 619.438 1664.88 620.839 1666.19 622.245C1668.81 625.031 1672.8 628 1678 628C1683.2 628 1687.19 625.031 1689.81 622.245C1691.12 620.839 1692.13 619.438 1692.81 618.39C1693.15 617.865 1693.41 617.424 1693.58 617.112C1693.67 616.956 1693.74 616.831 1693.78 616.743C1693.81 616.7 1693.82 616.665 1693.84 616.64L1693.85 616.611L1693.86 616.602L1693.86 616.598C1693.86 616.598 1693.86 616.596 1692.67 616ZM1692.67 616L1693.86 616.596C1694.05 616.221 1694.05 615.778 1693.86 615.403L1692.67 616ZM1678 613.333C1676.53 613.333 1675.33 614.527 1675.33 616C1675.33 617.473 1676.53 618.667 1678 618.667C1679.47 618.667 1680.67 617.473 1680.67 616C1680.67 614.527 1679.47 613.333 1678 613.333ZM1672.67 616C1672.67 613.054 1675.05 610.667 1678 610.667C1680.95 610.667 1683.33 613.054 1683.33 616C1683.33 618.946 1680.95 621.333 1678 621.333C1675.05 621.333 1672.67 618.946 1672.67 616Z" fill="black"/>
</svg>
